<mxfile host="app.diagrams.net" modified="2023-10-08T21:21:44.615Z" agent="Mozilla/5.0 (Windows NT 10.0; Win64; x64; rv:109.0) Gecko/20100101 Firefox/118.0" etag="2D-67QkaDiAiiOGgnSSz" version="22.0.4" type="google">
  <diagram name="PÃ¡gina-1" id="hw6YbVu_IpaQcz2jU82p">
    <mxGraphModel grid="1" page="1" gridSize="10" guides="1" tooltips="1" connect="1" arrows="1" fold="1" pageScale="1" pageWidth="827" pageHeight="1169" math="0" shadow="0">
      <root>
        <mxCell id="0" />
        <mxCell id="1" parent="0" />
        <mxCell id="Y-_55_ya9VjyHDabUnFr-41" style="edgeStyle=orthogonalEdgeStyle;rounded=0;orthogonalLoop=1;jettySize=auto;html=1;exitX=0.5;exitY=1;exitDx=0;exitDy=0;entryX=0;entryY=0.5;entryDx=0;entryDy=0;shape=link;" edge="1" parent="1" source="cc5oqjslnrZ3DRCShtl0-1" target="cc5oqjslnrZ3DRCShtl0-49">
          <mxGeometry relative="1" as="geometry" />
        </mxCell>
        <mxCell id="cc5oqjslnrZ3DRCShtl0-1" value="&lt;font style=&quot;font-size: 16px;&quot;&gt;&lt;span&gt;Trabajador&lt;/span&gt;&lt;/font&gt;" style="whiteSpace=wrap;html=1;align=center;strokeWidth=2;fontStyle=1" vertex="1" parent="1">
          <mxGeometry x="120" y="160" width="100" height="40" as="geometry" />
        </mxCell>
        <mxCell id="TdeLC3_kOeJKwItWiQyu-23" style="rounded=0;orthogonalLoop=1;jettySize=auto;html=1;exitX=0.5;exitY=1;exitDx=0;exitDy=0;entryX=0.5;entryY=0;entryDx=0;entryDy=0;endArrow=none;endFill=0;" edge="1" parent="1" source="cc5oqjslnrZ3DRCShtl0-2" target="cc5oqjslnrZ3DRCShtl0-1">
          <mxGeometry relative="1" as="geometry" />
        </mxCell>
        <mxCell id="cc5oqjslnrZ3DRCShtl0-2" value="&lt;font style=&quot;font-size: 16px;&quot;&gt;&lt;b&gt;&lt;u&gt;RFC&lt;/u&gt;&lt;/b&gt;&lt;/font&gt;" style="ellipse;whiteSpace=wrap;html=1;align=center;strokeWidth=2;" vertex="1" parent="1">
          <mxGeometry x="100" y="80" width="100" height="40" as="geometry" />
        </mxCell>
        <mxCell id="cc5oqjslnrZ3DRCShtl0-7" value="&lt;font style=&quot;font-size: 16px;&quot;&gt;&lt;b&gt;Direccion&lt;/b&gt;&lt;/font&gt;" style="ellipse;whiteSpace=wrap;html=1;align=center;strokeWidth=2;" vertex="1" parent="1">
          <mxGeometry x="-180" y="180" width="100" height="40" as="geometry" />
        </mxCell>
        <mxCell id="cc5oqjslnrZ3DRCShtl0-8" value="&lt;font style=&quot;font-size: 16px;&quot;&gt;&lt;b&gt;Calle&lt;br&gt;&lt;/b&gt;&lt;/font&gt;" style="ellipse;whiteSpace=wrap;html=1;align=center;strokeWidth=2;" vertex="1" parent="1">
          <mxGeometry x="-300" y="210" width="100" height="40" as="geometry" />
        </mxCell>
        <mxCell id="cc5oqjslnrZ3DRCShtl0-10" value="&lt;font style=&quot;font-size: 16px;&quot;&gt;&lt;b&gt;Num_Int&lt;br&gt;&lt;/b&gt;&lt;/font&gt;" style="ellipse;whiteSpace=wrap;html=1;align=center;strokeWidth=2;" vertex="1" parent="1">
          <mxGeometry x="-160" y="70" width="100" height="40" as="geometry" />
        </mxCell>
        <mxCell id="cc5oqjslnrZ3DRCShtl0-11" value="&lt;font style=&quot;font-size: 16px;&quot;&gt;&lt;b&gt;Num_Ext&lt;/b&gt;&lt;/font&gt;" style="ellipse;whiteSpace=wrap;html=1;align=center;strokeWidth=2;" vertex="1" parent="1">
          <mxGeometry x="-230" y="110" width="100" height="40" as="geometry" />
        </mxCell>
        <mxCell id="cc5oqjslnrZ3DRCShtl0-12" value="&lt;font style=&quot;font-size: 16px;&quot;&gt;&lt;b&gt;Colonia&lt;/b&gt;&lt;/font&gt;" style="ellipse;whiteSpace=wrap;html=1;align=center;strokeWidth=2;" vertex="1" parent="1">
          <mxGeometry x="-280" y="150" width="100" height="40" as="geometry" />
        </mxCell>
        <mxCell id="cc5oqjslnrZ3DRCShtl0-13" value="&lt;font style=&quot;font-size: 16px;&quot;&gt;&lt;b&gt;Estado&lt;/b&gt;&lt;/font&gt;" style="ellipse;whiteSpace=wrap;html=1;align=center;strokeWidth=2;" vertex="1" parent="1">
          <mxGeometry x="-100" y="110" width="100" height="40" as="geometry" />
        </mxCell>
        <mxCell id="cc5oqjslnrZ3DRCShtl0-15" value="&lt;font style=&quot;font-size: 16px;&quot;&gt;&lt;b&gt;FechaIn_Con&lt;/b&gt;&lt;/font&gt;" style="ellipse;whiteSpace=wrap;html=1;align=center;strokeWidth=2;" vertex="1" parent="1">
          <mxGeometry x="-50" y="230" width="120" height="40" as="geometry" />
        </mxCell>
        <mxCell id="cc5oqjslnrZ3DRCShtl0-16" value="&lt;font style=&quot;font-size: 16px;&quot;&gt;&lt;b&gt;FechaFin_Con&lt;/b&gt;&lt;/font&gt;" style="ellipse;whiteSpace=wrap;html=1;align=center;strokeWidth=2;" vertex="1" parent="1">
          <mxGeometry x="250" y="215" width="120" height="50" as="geometry" />
        </mxCell>
        <mxCell id="cc5oqjslnrZ3DRCShtl0-25" value="" style="endArrow=none;html=1;rounded=0;entryX=1;entryY=0.5;entryDx=0;entryDy=0;strokeWidth=2;exitX=0;exitY=0.5;exitDx=0;exitDy=0;" edge="1" parent="1" source="cc5oqjslnrZ3DRCShtl0-1" target="cc5oqjslnrZ3DRCShtl0-7">
          <mxGeometry relative="1" as="geometry">
            <mxPoint x="105.9" y="210" as="sourcePoint" />
            <mxPoint x="465.9" y="310" as="targetPoint" />
          </mxGeometry>
        </mxCell>
        <mxCell id="cc5oqjslnrZ3DRCShtl0-27" value="" style="endArrow=none;html=1;rounded=0;exitX=0.75;exitY=0.063;exitDx=0;exitDy=0;entryX=0.26;entryY=0.938;entryDx=0;entryDy=0;entryPerimeter=0;strokeWidth=2;exitPerimeter=0;" edge="1" parent="1" source="cc5oqjslnrZ3DRCShtl0-7" target="cc5oqjslnrZ3DRCShtl0-13">
          <mxGeometry relative="1" as="geometry">
            <mxPoint x="-140" y="270" as="sourcePoint" />
            <mxPoint x="-138" y="239" as="targetPoint" />
          </mxGeometry>
        </mxCell>
        <mxCell id="cc5oqjslnrZ3DRCShtl0-28" value="" style="endArrow=none;html=1;rounded=0;entryX=0.5;entryY=1;entryDx=0;entryDy=0;strokeWidth=2;exitX=0.5;exitY=0;exitDx=0;exitDy=0;" edge="1" parent="1" source="cc5oqjslnrZ3DRCShtl0-7" target="cc5oqjslnrZ3DRCShtl0-10">
          <mxGeometry relative="1" as="geometry">
            <mxPoint x="-130" y="190" as="sourcePoint" />
            <mxPoint x="-128" y="249" as="targetPoint" />
          </mxGeometry>
        </mxCell>
        <mxCell id="cc5oqjslnrZ3DRCShtl0-30" value="" style="endArrow=none;html=1;rounded=0;exitX=0.38;exitY=0.013;exitDx=0;exitDy=0;entryX=0.68;entryY=0.963;entryDx=0;entryDy=0;entryPerimeter=0;strokeWidth=2;exitPerimeter=0;" edge="1" parent="1" source="cc5oqjslnrZ3DRCShtl0-7" target="cc5oqjslnrZ3DRCShtl0-11">
          <mxGeometry relative="1" as="geometry">
            <mxPoint x="-120" y="290" as="sourcePoint" />
            <mxPoint x="-118" y="259" as="targetPoint" />
          </mxGeometry>
        </mxCell>
        <mxCell id="cc5oqjslnrZ3DRCShtl0-31" value="" style="endArrow=none;html=1;rounded=0;exitX=0;exitY=0;exitDx=0;exitDy=0;entryX=1;entryY=1;entryDx=0;entryDy=0;strokeWidth=2;" edge="1" parent="1" source="cc5oqjslnrZ3DRCShtl0-7" target="cc5oqjslnrZ3DRCShtl0-12">
          <mxGeometry relative="1" as="geometry">
            <mxPoint x="-110" y="300" as="sourcePoint" />
            <mxPoint x="-108" y="269" as="targetPoint" />
          </mxGeometry>
        </mxCell>
        <mxCell id="cc5oqjslnrZ3DRCShtl0-32" value="" style="endArrow=none;html=1;rounded=0;exitX=0;exitY=1;exitDx=0;exitDy=0;entryX=1;entryY=0.5;entryDx=0;entryDy=0;strokeWidth=2;" edge="1" parent="1" source="cc5oqjslnrZ3DRCShtl0-7" target="cc5oqjslnrZ3DRCShtl0-8">
          <mxGeometry relative="1" as="geometry">
            <mxPoint x="-100" y="310" as="sourcePoint" />
            <mxPoint x="-98" y="279" as="targetPoint" />
          </mxGeometry>
        </mxCell>
        <mxCell id="cc5oqjslnrZ3DRCShtl0-37" value="" style="endArrow=none;html=1;rounded=0;exitX=0.5;exitY=0;exitDx=0;exitDy=0;entryX=0.16;entryY=0.988;entryDx=0;entryDy=0;strokeWidth=2;entryPerimeter=0;" edge="1" parent="1" source="cc5oqjslnrZ3DRCShtl0-15" target="cc5oqjslnrZ3DRCShtl0-1">
          <mxGeometry relative="1" as="geometry">
            <mxPoint x="110" y="190" as="sourcePoint" />
            <mxPoint x="140" y="190" as="targetPoint" />
          </mxGeometry>
        </mxCell>
        <mxCell id="cc5oqjslnrZ3DRCShtl0-40" value="" style="endArrow=none;html=1;rounded=0;exitX=0;exitY=0;exitDx=0;exitDy=0;entryX=1;entryY=1;entryDx=0;entryDy=0;strokeWidth=2;elbow=vertical;" edge="1" parent="1" source="cc5oqjslnrZ3DRCShtl0-16" target="cc5oqjslnrZ3DRCShtl0-1">
          <mxGeometry relative="1" as="geometry">
            <mxPoint x="130" y="210" as="sourcePoint" />
            <mxPoint x="160" y="210" as="targetPoint" />
          </mxGeometry>
        </mxCell>
        <mxCell id="cc5oqjslnrZ3DRCShtl0-49" value="" style="triangle;whiteSpace=wrap;html=1;shadow=0;strokeColor=default;strokeWidth=2;fontFamily=Helvetica;fontSize=12;fontColor=default;fillColor=default;rotation=90;" vertex="1" parent="1">
          <mxGeometry x="140" y="430" width="60" height="80" as="geometry" />
        </mxCell>
        <mxCell id="cc5oqjslnrZ3DRCShtl0-51" value="&lt;font style=&quot;font-size: 16px;&quot;&gt;&lt;b&gt;Veterinario&lt;br&gt;&lt;/b&gt;&lt;/font&gt;" style="whiteSpace=wrap;html=1;align=center;strokeWidth=2;" vertex="1" parent="1">
          <mxGeometry x="-220" y="550" width="100" height="40" as="geometry" />
        </mxCell>
        <mxCell id="cc5oqjslnrZ3DRCShtl0-52" value="&lt;font style=&quot;font-size: 16px;&quot;&gt;&lt;b&gt;Cuidador&lt;/b&gt;&lt;/font&gt;" style="whiteSpace=wrap;html=1;align=center;strokeWidth=2;" vertex="1" parent="1">
          <mxGeometry x="120" y="550" width="100" height="40" as="geometry" />
        </mxCell>
        <mxCell id="CCVpfl_Kz8rF-1x_p7pF-2" style="edgeStyle=orthogonalEdgeStyle;rounded=0;orthogonalLoop=1;jettySize=auto;html=1;exitX=0;exitY=0.5;exitDx=0;exitDy=0;entryX=0.5;entryY=1;entryDx=0;entryDy=0;" edge="1" parent="1" source="CCVpfl_Kz8rF-1x_p7pF-1" target="cc5oqjslnrZ3DRCShtl0-53">
          <mxGeometry relative="1" as="geometry" />
        </mxCell>
        <mxCell id="cc5oqjslnrZ3DRCShtl0-53" value="&lt;font style=&quot;font-size: 16px;&quot;&gt;&lt;b&gt;Proveedor&lt;/b&gt;&lt;/font&gt;" style="whiteSpace=wrap;html=1;align=center;strokeWidth=2;" vertex="1" parent="1">
          <mxGeometry x="450" y="550" width="100" height="40" as="geometry" />
        </mxCell>
        <mxCell id="cc5oqjslnrZ3DRCShtl0-54" value="" style="endArrow=none;html=1;rounded=0;exitX=0.5;exitY=0;exitDx=0;exitDy=0;entryX=0.5;entryY=1;entryDx=0;entryDy=0;strokeWidth=2;" edge="1" parent="1" source="cc5oqjslnrZ3DRCShtl0-51">
          <mxGeometry relative="1" as="geometry">
            <mxPoint x="70" y="470" as="sourcePoint" />
            <mxPoint x="150" y="470" as="targetPoint" />
          </mxGeometry>
        </mxCell>
        <mxCell id="cc5oqjslnrZ3DRCShtl0-55" value="" style="endArrow=none;html=1;rounded=0;exitX=0.5;exitY=0;exitDx=0;exitDy=0;entryX=1;entryY=0.5;entryDx=0;entryDy=0;strokeWidth=2;" edge="1" parent="1" source="cc5oqjslnrZ3DRCShtl0-52">
          <mxGeometry relative="1" as="geometry">
            <mxPoint x="30" y="560" as="sourcePoint" />
            <mxPoint x="170" y="500" as="targetPoint" />
          </mxGeometry>
        </mxCell>
        <mxCell id="cc5oqjslnrZ3DRCShtl0-56" value="" style="endArrow=none;html=1;rounded=0;exitX=0.5;exitY=0;exitDx=0;exitDy=0;entryX=0.5;entryY=0;entryDx=0;entryDy=0;strokeWidth=2;" edge="1" parent="1" source="cc5oqjslnrZ3DRCShtl0-53">
          <mxGeometry relative="1" as="geometry">
            <mxPoint x="180" y="560" as="sourcePoint" />
            <mxPoint x="190" y="470" as="targetPoint" />
          </mxGeometry>
        </mxCell>
        <mxCell id="cc5oqjslnrZ3DRCShtl0-58" value="&lt;font style=&quot;font-size: 16px;&quot;&gt;&lt;b&gt;d&lt;/b&gt;&lt;/font&gt;" style="text;html=1;strokeColor=none;fillColor=none;align=center;verticalAlign=middle;whiteSpace=wrap;rounded=0;fontSize=12;fontFamily=Helvetica;fontColor=default;" vertex="1" parent="1">
          <mxGeometry x="140" y="450" width="60" height="30" as="geometry" />
        </mxCell>
        <mxCell id="cc5oqjslnrZ3DRCShtl0-60" value="&lt;font style=&quot;font-size: 16px;&quot;&gt;&lt;b&gt;Salario&lt;br&gt;&lt;/b&gt;&lt;/font&gt;" style="ellipse;whiteSpace=wrap;html=1;align=center;strokeWidth=2;" vertex="1" parent="1">
          <mxGeometry x="-370" y="480" width="120" height="40" as="geometry" />
        </mxCell>
        <mxCell id="cc5oqjslnrZ3DRCShtl0-61" value="&lt;font style=&quot;font-size: 16px;&quot;&gt;&lt;b&gt;Animal_Enc&lt;/b&gt;&lt;/font&gt;" style="ellipse;whiteSpace=wrap;html=1;align=center;strokeWidth=2;" vertex="1" parent="1">
          <mxGeometry x="-40" y="520" width="120" height="40" as="geometry" />
        </mxCell>
        <mxCell id="cc5oqjslnrZ3DRCShtl0-62" value="&lt;font style=&quot;font-size: 16px;&quot;&gt;&lt;b&gt;Dias_Trab&lt;/b&gt;&lt;/font&gt;" style="ellipse;whiteSpace=wrap;html=1;align=center;strokeWidth=2;" vertex="1" parent="1">
          <mxGeometry x="270" y="530" width="120" height="40" as="geometry" />
        </mxCell>
        <mxCell id="cc5oqjslnrZ3DRCShtl0-63" value="&lt;font style=&quot;font-size: 16px;&quot;&gt;&lt;b&gt;Horario_Lab&lt;/b&gt;&lt;/font&gt;" style="ellipse;whiteSpace=wrap;html=1;align=center;strokeWidth=2;" vertex="1" parent="1">
          <mxGeometry x="-70" y="570" width="120" height="40" as="geometry" />
        </mxCell>
        <mxCell id="cc5oqjslnrZ3DRCShtl0-64" value="&lt;font style=&quot;font-size: 16px;&quot;&gt;&lt;b&gt;Salario&lt;/b&gt;&lt;/font&gt;" style="ellipse;whiteSpace=wrap;html=1;align=center;strokeWidth=2;" vertex="1" parent="1">
          <mxGeometry x="280" y="585" width="120" height="40" as="geometry" />
        </mxCell>
        <mxCell id="cc5oqjslnrZ3DRCShtl0-65" value="&lt;span style=&quot;font-size: 16px;&quot;&gt;&lt;b&gt;Producto&lt;/b&gt;&lt;/span&gt;" style="ellipse;whiteSpace=wrap;html=1;align=center;strokeWidth=2;" vertex="1" parent="1">
          <mxGeometry x="590" y="560" width="120" height="40" as="geometry" />
        </mxCell>
        <mxCell id="cc5oqjslnrZ3DRCShtl0-66" value="&lt;span style=&quot;font-size: 16px;&quot;&gt;&lt;b&gt;Frecuencia&lt;/b&gt;&lt;/span&gt;" style="ellipse;whiteSpace=wrap;html=1;align=center;strokeWidth=2;" vertex="1" parent="1">
          <mxGeometry x="560" y="610" width="120" height="40" as="geometry" />
        </mxCell>
        <mxCell id="cc5oqjslnrZ3DRCShtl0-67" value="&lt;span style=&quot;font-size: 16px;&quot;&gt;&lt;b&gt;Costo_Serv&lt;/b&gt;&lt;/span&gt;" style="ellipse;whiteSpace=wrap;html=1;align=center;strokeWidth=2;" vertex="1" parent="1">
          <mxGeometry x="590" y="500" width="120" height="40" as="geometry" />
        </mxCell>
        <mxCell id="cc5oqjslnrZ3DRCShtl0-68" value="" style="endArrow=none;html=1;rounded=0;exitX=1;exitY=0.5;exitDx=0;exitDy=0;entryX=0;entryY=0.5;entryDx=0;entryDy=0;strokeWidth=2;" edge="1" parent="1" source="cc5oqjslnrZ3DRCShtl0-78" target="cc5oqjslnrZ3DRCShtl0-51">
          <mxGeometry relative="1" as="geometry">
            <mxPoint x="-240" y="570" as="sourcePoint" />
            <mxPoint x="-50" y="480" as="targetPoint" />
          </mxGeometry>
        </mxCell>
        <mxCell id="cc5oqjslnrZ3DRCShtl0-69" value="" style="endArrow=none;html=1;rounded=0;exitX=0.741;exitY=0.958;exitDx=0;exitDy=0;entryX=0;entryY=0;entryDx=0;entryDy=0;strokeWidth=2;exitPerimeter=0;" edge="1" parent="1" source="cc5oqjslnrZ3DRCShtl0-60" target="cc5oqjslnrZ3DRCShtl0-51">
          <mxGeometry relative="1" as="geometry">
            <mxPoint x="-150" y="570" as="sourcePoint" />
            <mxPoint x="-40" y="490" as="targetPoint" />
          </mxGeometry>
        </mxCell>
        <mxCell id="cc5oqjslnrZ3DRCShtl0-74" value="" style="endArrow=none;html=1;rounded=0;exitX=0;exitY=0;exitDx=0;exitDy=0;entryX=1;entryY=0.75;entryDx=0;entryDy=0;strokeWidth=2;" edge="1" parent="1" source="cc5oqjslnrZ3DRCShtl0-64" target="cc5oqjslnrZ3DRCShtl0-52">
          <mxGeometry relative="1" as="geometry">
            <mxPoint x="110" y="640" as="sourcePoint" />
            <mxPoint x="140" y="610" as="targetPoint" />
          </mxGeometry>
        </mxCell>
        <mxCell id="cc5oqjslnrZ3DRCShtl0-75" value="" style="endArrow=none;html=1;rounded=0;exitX=1;exitY=0.5;exitDx=0;exitDy=0;entryX=0;entryY=0.5;entryDx=0;entryDy=0;strokeWidth=2;" edge="1" parent="1" source="cc5oqjslnrZ3DRCShtl0-53" target="cc5oqjslnrZ3DRCShtl0-65">
          <mxGeometry relative="1" as="geometry">
            <mxPoint x="310" y="650" as="sourcePoint" />
            <mxPoint x="340" y="620" as="targetPoint" />
          </mxGeometry>
        </mxCell>
        <mxCell id="cc5oqjslnrZ3DRCShtl0-76" value="" style="endArrow=none;html=1;rounded=0;exitX=0.94;exitY=0.975;exitDx=0;exitDy=0;entryX=0;entryY=0.5;entryDx=0;entryDy=0;strokeWidth=2;exitPerimeter=0;" edge="1" parent="1" source="cc5oqjslnrZ3DRCShtl0-53" target="cc5oqjslnrZ3DRCShtl0-66">
          <mxGeometry relative="1" as="geometry">
            <mxPoint x="320" y="660" as="sourcePoint" />
            <mxPoint x="350" y="630" as="targetPoint" />
          </mxGeometry>
        </mxCell>
        <mxCell id="cc5oqjslnrZ3DRCShtl0-77" value="" style="endArrow=none;html=1;rounded=0;exitX=0.311;exitY=0.958;exitDx=0;exitDy=0;entryX=1;entryY=0;entryDx=0;entryDy=0;strokeWidth=2;exitPerimeter=0;" edge="1" parent="1" source="cc5oqjslnrZ3DRCShtl0-67" target="cc5oqjslnrZ3DRCShtl0-53">
          <mxGeometry relative="1" as="geometry">
            <mxPoint x="330" y="670" as="sourcePoint" />
            <mxPoint x="360" y="640" as="targetPoint" />
          </mxGeometry>
        </mxCell>
        <mxCell id="cc5oqjslnrZ3DRCShtl0-78" value="&lt;b&gt;&lt;font style=&quot;font-size: 15px;&quot;&gt;Especialidad&lt;/font&gt;&lt;/b&gt;" style="ellipse;shape=doubleEllipse;margin=3;whiteSpace=wrap;html=1;align=center;shadow=0;strokeColor=default;strokeWidth=2;fontFamily=Helvetica;fontSize=12;fontColor=default;fillColor=default;" vertex="1" parent="1">
          <mxGeometry x="-370" y="550" width="110" height="40" as="geometry" />
        </mxCell>
        <mxCell id="cc5oqjslnrZ3DRCShtl0-81" value="&lt;font style=&quot;font-size: 16px;&quot;&gt;&lt;span&gt;Bioma&lt;/span&gt;&lt;/font&gt;" style="whiteSpace=wrap;html=1;align=center;strokeWidth=2;fontStyle=1" vertex="1" parent="1">
          <mxGeometry x="275" y="1063" width="100" height="40" as="geometry" />
        </mxCell>
        <mxCell id="cc5oqjslnrZ3DRCShtl0-82" value="&lt;u&gt;&lt;font style=&quot;font-size: 16px;&quot;&gt;&lt;b&gt;Tipo&lt;/b&gt;&lt;/font&gt;&lt;/u&gt;" style="ellipse;whiteSpace=wrap;html=1;align=center;shadow=0;strokeColor=default;strokeWidth=2;fontFamily=Helvetica;fontSize=12;fontColor=default;fillColor=default;" vertex="1" parent="1">
          <mxGeometry x="470" y="1180" width="100" height="40" as="geometry" />
        </mxCell>
        <mxCell id="cc5oqjslnrZ3DRCShtl0-83" value="&lt;font style=&quot;font-size: 16px;&quot;&gt;&lt;b&gt;Num_Jaulas&lt;/b&gt;&lt;/font&gt;" style="ellipse;whiteSpace=wrap;html=1;align=center;shadow=0;strokeColor=default;strokeWidth=2;fontFamily=Helvetica;fontSize=12;fontColor=default;fillColor=default;" vertex="1" parent="1">
          <mxGeometry x="17.5" y="1180" width="110" height="40" as="geometry" />
        </mxCell>
        <mxCell id="cc5oqjslnrZ3DRCShtl0-84" value="&lt;font style=&quot;font-size: 16px;&quot;&gt;&lt;b&gt;Num_Cuid&lt;/b&gt;&lt;/font&gt;" style="ellipse;whiteSpace=wrap;html=1;align=center;shadow=0;strokeColor=default;strokeWidth=2;fontFamily=Helvetica;fontSize=12;fontColor=default;fillColor=default;" vertex="1" parent="1">
          <mxGeometry x="110" y="1227" width="110" height="40" as="geometry" />
        </mxCell>
        <mxCell id="cc5oqjslnrZ3DRCShtl0-85" value="&lt;font style=&quot;font-size: 16px;&quot;&gt;&lt;b&gt;Num_Vet&lt;br&gt;&lt;/b&gt;&lt;/font&gt;" style="ellipse;whiteSpace=wrap;html=1;align=center;shadow=0;strokeColor=default;strokeWidth=2;fontFamily=Helvetica;fontSize=12;fontColor=default;fillColor=default;" vertex="1" parent="1">
          <mxGeometry x="217.5" y="1190" width="110" height="40" as="geometry" />
        </mxCell>
        <mxCell id="cc5oqjslnrZ3DRCShtl0-86" value="&lt;font style=&quot;font-size: 16px;&quot;&gt;&lt;b&gt;Num_Anim&lt;br&gt;&lt;/b&gt;&lt;/font&gt;" style="ellipse;whiteSpace=wrap;html=1;align=center;shadow=0;strokeColor=default;strokeWidth=2;fontFamily=Helvetica;fontSize=12;fontColor=default;fillColor=default;" vertex="1" parent="1">
          <mxGeometry x="290" y="1237" width="110" height="40" as="geometry" />
        </mxCell>
        <mxCell id="cc5oqjslnrZ3DRCShtl0-87" value="&lt;font style=&quot;font-size: 16px;&quot;&gt;&lt;b&gt;Servicio&lt;br&gt;&lt;/b&gt;&lt;/font&gt;" style="ellipse;whiteSpace=wrap;html=1;align=center;shadow=0;strokeColor=default;strokeWidth=2;fontFamily=Helvetica;fontSize=12;fontColor=default;fillColor=default;" vertex="1" parent="1">
          <mxGeometry x="400" y="1227" width="110" height="40" as="geometry" />
        </mxCell>
        <mxCell id="-d3J0LfeknoKQkhsuHQo-3" value="" style="endArrow=none;html=1;rounded=0;exitX=1;exitY=0.5;exitDx=0;exitDy=0;entryX=0;entryY=0.25;entryDx=0;entryDy=0;" edge="1" parent="1" source="cc5oqjslnrZ3DRCShtl0-61" target="cc5oqjslnrZ3DRCShtl0-52">
          <mxGeometry width="50" height="50" relative="1" as="geometry">
            <mxPoint x="170" y="610" as="sourcePoint" />
            <mxPoint x="430" y="520" as="targetPoint" />
          </mxGeometry>
        </mxCell>
        <mxCell id="-d3J0LfeknoKQkhsuHQo-4" value="" style="endArrow=none;html=1;rounded=0;exitX=1;exitY=0.5;exitDx=0;exitDy=0;entryX=0;entryY=0.5;entryDx=0;entryDy=0;" edge="1" parent="1" source="cc5oqjslnrZ3DRCShtl0-52" target="cc5oqjslnrZ3DRCShtl0-62">
          <mxGeometry width="50" height="50" relative="1" as="geometry">
            <mxPoint x="380" y="570" as="sourcePoint" />
            <mxPoint x="430" y="520" as="targetPoint" />
          </mxGeometry>
        </mxCell>
        <mxCell id="-d3J0LfeknoKQkhsuHQo-5" value="" style="endArrow=none;html=1;rounded=0;entryX=0;entryY=0.75;entryDx=0;entryDy=0;" edge="1" parent="1" source="cc5oqjslnrZ3DRCShtl0-63" target="cc5oqjslnrZ3DRCShtl0-52">
          <mxGeometry width="50" height="50" relative="1" as="geometry">
            <mxPoint x="380" y="570" as="sourcePoint" />
            <mxPoint x="430" y="520" as="targetPoint" />
          </mxGeometry>
        </mxCell>
        <mxCell id="-d3J0LfeknoKQkhsuHQo-9" style="edgeStyle=orthogonalEdgeStyle;rounded=0;orthogonalLoop=1;jettySize=auto;html=1;exitX=0.5;exitY=1;exitDx=0;exitDy=0;entryX=0.5;entryY=0;entryDx=0;entryDy=0;shape=link;" edge="1" parent="1" source="-d3J0LfeknoKQkhsuHQo-6" target="-d3J0LfeknoKQkhsuHQo-8">
          <mxGeometry relative="1" as="geometry" />
        </mxCell>
        <mxCell id="-d3J0LfeknoKQkhsuHQo-6" value="&lt;font style=&quot;font-size: 16px;&quot;&gt;&lt;span&gt;Insumo&lt;/span&gt;&lt;/font&gt;" style="whiteSpace=wrap;html=1;align=center;strokeWidth=2;fontStyle=1" vertex="1" parent="1">
          <mxGeometry x="1040" y="770" width="100" height="40" as="geometry" />
        </mxCell>
        <mxCell id="-d3J0LfeknoKQkhsuHQo-7" value="" style="triangle;whiteSpace=wrap;html=1;shadow=0;strokeColor=default;strokeWidth=2;fontFamily=Helvetica;fontSize=12;fontColor=default;fillColor=default;rotation=90;" vertex="1" parent="1">
          <mxGeometry x="1060" y="880" width="60" height="80" as="geometry" />
        </mxCell>
        <mxCell id="-d3J0LfeknoKQkhsuHQo-8" value="&lt;font style=&quot;font-size: 16px;&quot;&gt;&lt;b&gt;d&lt;/b&gt;&lt;/font&gt;" style="text;html=1;strokeColor=none;fillColor=none;align=center;verticalAlign=middle;whiteSpace=wrap;rounded=0;fontSize=12;fontFamily=Helvetica;fontColor=default;" vertex="1" parent="1">
          <mxGeometry x="1060" y="900" width="60" height="30" as="geometry" />
        </mxCell>
        <mxCell id="-d3J0LfeknoKQkhsuHQo-10" value="&lt;span style=&quot;font-size: 16px;&quot;&gt;Alimento&lt;/span&gt;" style="whiteSpace=wrap;html=1;align=center;strokeWidth=2;fontStyle=1" vertex="1" parent="1">
          <mxGeometry x="860" y="1010" width="100" height="40" as="geometry" />
        </mxCell>
        <mxCell id="-d3J0LfeknoKQkhsuHQo-11" value="&lt;span style=&quot;font-size: 16px;&quot;&gt;Medicina&lt;/span&gt;" style="whiteSpace=wrap;html=1;align=center;strokeWidth=2;fontStyle=1" vertex="1" parent="1">
          <mxGeometry x="1220" y="1010" width="100" height="40" as="geometry" />
        </mxCell>
        <mxCell id="-d3J0LfeknoKQkhsuHQo-12" value="" style="endArrow=none;html=1;rounded=0;entryX=0.25;entryY=1;entryDx=0;entryDy=0;exitX=0.5;exitY=0;exitDx=0;exitDy=0;" edge="1" parent="1" source="-d3J0LfeknoKQkhsuHQo-10" target="-d3J0LfeknoKQkhsuHQo-8">
          <mxGeometry width="50" height="50" relative="1" as="geometry">
            <mxPoint x="980" y="1030" as="sourcePoint" />
            <mxPoint x="1030" y="980" as="targetPoint" />
          </mxGeometry>
        </mxCell>
        <mxCell id="-d3J0LfeknoKQkhsuHQo-13" value="" style="endArrow=none;html=1;rounded=0;exitX=0.75;exitY=1;exitDx=0;exitDy=0;entryX=0.5;entryY=0;entryDx=0;entryDy=0;" edge="1" parent="1" source="-d3J0LfeknoKQkhsuHQo-8" target="-d3J0LfeknoKQkhsuHQo-11">
          <mxGeometry width="50" height="50" relative="1" as="geometry">
            <mxPoint x="920" y="1020" as="sourcePoint" />
            <mxPoint x="1085" y="940" as="targetPoint" />
          </mxGeometry>
        </mxCell>
        <mxCell id="-d3J0LfeknoKQkhsuHQo-14" value="&lt;span style=&quot;font-size: 16px;&quot;&gt;&lt;b&gt;seRefrigera&lt;/b&gt;&lt;/span&gt;" style="ellipse;whiteSpace=wrap;html=1;align=center;strokeWidth=2;" vertex="1" parent="1">
          <mxGeometry x="1080.5" y="605" width="120" height="40" as="geometry" />
        </mxCell>
        <mxCell id="TdeLC3_kOeJKwItWiQyu-46" style="rounded=0;orthogonalLoop=1;jettySize=auto;html=1;exitX=1;exitY=1;exitDx=0;exitDy=0;entryX=0.5;entryY=0;entryDx=0;entryDy=0;endArrow=none;endFill=0;" edge="1" parent="1" source="-d3J0LfeknoKQkhsuHQo-15" target="-d3J0LfeknoKQkhsuHQo-6">
          <mxGeometry relative="1" as="geometry" />
        </mxCell>
        <mxCell id="-d3J0LfeknoKQkhsuHQo-15" value="&lt;span style=&quot;font-size: 16px;&quot;&gt;&lt;b&gt;Nombre&lt;/b&gt;&lt;/span&gt;" style="ellipse;whiteSpace=wrap;html=1;align=center;strokeWidth=2;" vertex="1" parent="1">
          <mxGeometry x="940.5" y="620" width="120" height="40" as="geometry" />
        </mxCell>
        <mxCell id="TdeLC3_kOeJKwItWiQyu-47" style="rounded=0;orthogonalLoop=1;jettySize=auto;html=1;exitX=1;exitY=1;exitDx=0;exitDy=0;entryX=0;entryY=0;entryDx=0;entryDy=0;endArrow=none;endFill=0;" edge="1" parent="1" source="-d3J0LfeknoKQkhsuHQo-16" target="-d3J0LfeknoKQkhsuHQo-6">
          <mxGeometry relative="1" as="geometry" />
        </mxCell>
        <mxCell id="-d3J0LfeknoKQkhsuHQo-16" value="&lt;span style=&quot;font-size: 16px;&quot;&gt;&lt;b&gt;Cantidad&lt;/b&gt;&lt;/span&gt;" style="ellipse;whiteSpace=wrap;html=1;align=center;strokeWidth=2;" vertex="1" parent="1">
          <mxGeometry x="890" y="680" width="120" height="40" as="geometry" />
        </mxCell>
        <mxCell id="-d3J0LfeknoKQkhsuHQo-17" value="&lt;span style=&quot;font-size: 16px;&quot;&gt;&lt;b&gt;Proveedor&lt;/b&gt;&lt;/span&gt;" style="ellipse;whiteSpace=wrap;html=1;align=center;strokeWidth=1;dashed=1;" vertex="1" parent="1">
          <mxGeometry x="1200" y="670" width="120" height="40" as="geometry" />
        </mxCell>
        <mxCell id="-d3J0LfeknoKQkhsuHQo-18" value="&lt;span style=&quot;font-size: 16px;&quot;&gt;&lt;b&gt;fechaCad&lt;/b&gt;&lt;/span&gt;" style="ellipse;whiteSpace=wrap;html=1;align=center;strokeWidth=2;" vertex="1" parent="1">
          <mxGeometry x="1240" y="740" width="120" height="40" as="geometry" />
        </mxCell>
        <mxCell id="TdeLC3_kOeJKwItWiQyu-24" style="rounded=0;orthogonalLoop=1;jettySize=auto;html=1;exitX=1;exitY=0.5;exitDx=0;exitDy=0;entryX=0;entryY=0.5;entryDx=0;entryDy=0;endArrow=none;endFill=0;" edge="1" parent="1" source="-d3J0LfeknoKQkhsuHQo-19" target="-d3J0LfeknoKQkhsuHQo-10">
          <mxGeometry relative="1" as="geometry" />
        </mxCell>
        <mxCell id="-d3J0LfeknoKQkhsuHQo-19" value="&lt;span style=&quot;font-size: 16px;&quot;&gt;&lt;b&gt;tipoAlimento&lt;/b&gt;&lt;/span&gt;" style="ellipse;whiteSpace=wrap;html=1;align=center;strokeWidth=2;" vertex="1" parent="1">
          <mxGeometry x="660" y="1010" width="120" height="40" as="geometry" />
        </mxCell>
        <mxCell id="-d3J0LfeknoKQkhsuHQo-20" value="&lt;span style=&quot;font-size: 16px;&quot;&gt;&lt;b&gt;Lote&lt;/b&gt;&lt;/span&gt;" style="ellipse;whiteSpace=wrap;html=1;align=center;strokeWidth=2;" vertex="1" parent="1">
          <mxGeometry x="1410" y="1010" width="120" height="40" as="geometry" />
        </mxCell>
        <mxCell id="-d3J0LfeknoKQkhsuHQo-21" value="&lt;span style=&quot;font-size: 16px;&quot;&gt;&lt;b&gt;labProcedencia&lt;/b&gt;&lt;/span&gt;" style="ellipse;whiteSpace=wrap;html=1;align=center;strokeWidth=2;" vertex="1" parent="1">
          <mxGeometry x="1390" y="940" width="150" height="40" as="geometry" />
        </mxCell>
        <mxCell id="-d3J0LfeknoKQkhsuHQo-25" value="" style="endArrow=none;html=1;rounded=0;exitX=0.5;exitY=1;exitDx=0;exitDy=0;entryX=0.75;entryY=0;entryDx=0;entryDy=0;" edge="1" parent="1" source="-d3J0LfeknoKQkhsuHQo-14" target="-d3J0LfeknoKQkhsuHQo-6">
          <mxGeometry width="50" height="50" relative="1" as="geometry">
            <mxPoint x="917" y="762" as="sourcePoint" />
            <mxPoint x="1050" y="790" as="targetPoint" />
          </mxGeometry>
        </mxCell>
        <mxCell id="-d3J0LfeknoKQkhsuHQo-26" value="" style="endArrow=none;html=1;rounded=0;exitX=0.047;exitY=0.765;exitDx=0;exitDy=0;entryX=1;entryY=0;entryDx=0;entryDy=0;exitPerimeter=0;" edge="1" parent="1" source="-d3J0LfeknoKQkhsuHQo-17" target="-d3J0LfeknoKQkhsuHQo-6">
          <mxGeometry width="50" height="50" relative="1" as="geometry">
            <mxPoint x="972" y="714" as="sourcePoint" />
            <mxPoint x="1067" y="776" as="targetPoint" />
          </mxGeometry>
        </mxCell>
        <mxCell id="-d3J0LfeknoKQkhsuHQo-27" value="" style="endArrow=none;html=1;rounded=0;exitX=0;exitY=0.5;exitDx=0;exitDy=0;entryX=1;entryY=0.5;entryDx=0;entryDy=0;" edge="1" parent="1" source="-d3J0LfeknoKQkhsuHQo-18" target="-d3J0LfeknoKQkhsuHQo-6">
          <mxGeometry width="50" height="50" relative="1" as="geometry">
            <mxPoint x="1216" y="711" as="sourcePoint" />
            <mxPoint x="1150" y="780" as="targetPoint" />
          </mxGeometry>
        </mxCell>
        <mxCell id="-d3J0LfeknoKQkhsuHQo-28" value="" style="endArrow=none;html=1;rounded=0;exitX=0.053;exitY=0.752;exitDx=0;exitDy=0;entryX=1;entryY=0.25;entryDx=0;entryDy=0;exitPerimeter=0;" edge="1" parent="1" source="-d3J0LfeknoKQkhsuHQo-21" target="-d3J0LfeknoKQkhsuHQo-11">
          <mxGeometry width="50" height="50" relative="1" as="geometry">
            <mxPoint x="1360" y="950" as="sourcePoint" />
            <mxPoint x="1260" y="980" as="targetPoint" />
          </mxGeometry>
        </mxCell>
        <mxCell id="-d3J0LfeknoKQkhsuHQo-29" value="" style="endArrow=none;html=1;rounded=0;exitX=0;exitY=0.5;exitDx=0;exitDy=0;entryX=1;entryY=0.5;entryDx=0;entryDy=0;" edge="1" parent="1" source="-d3J0LfeknoKQkhsuHQo-20" target="-d3J0LfeknoKQkhsuHQo-11">
          <mxGeometry width="50" height="50" relative="1" as="geometry">
            <mxPoint x="1370" y="960" as="sourcePoint" />
            <mxPoint x="1330" y="1030" as="targetPoint" />
          </mxGeometry>
        </mxCell>
        <mxCell id="-d3J0LfeknoKQkhsuHQo-31" value="&lt;font style=&quot;font-size: 16px;&quot;&gt;&lt;span&gt;Cliente&lt;/span&gt;&lt;/font&gt;" style="whiteSpace=wrap;html=1;align=center;strokeWidth=2;fontStyle=1" vertex="1" parent="1">
          <mxGeometry x="1355" y="350" width="100" height="40" as="geometry" />
        </mxCell>
        <mxCell id="-d3J0LfeknoKQkhsuHQo-32" value="" style="endArrow=none;html=1;rounded=0;exitX=1;exitY=1;exitDx=0;exitDy=0;" edge="1" parent="1" source="cc5oqjslnrZ3DRCShtl0-81" target="cc5oqjslnrZ3DRCShtl0-87">
          <mxGeometry width="50" height="50" relative="1" as="geometry">
            <mxPoint x="441" y="1117" as="sourcePoint" />
            <mxPoint x="791" y="1107" as="targetPoint" />
          </mxGeometry>
        </mxCell>
        <mxCell id="-d3J0LfeknoKQkhsuHQo-33" value="" style="endArrow=none;html=1;rounded=0;exitX=0.75;exitY=1;exitDx=0;exitDy=0;entryX=0.5;entryY=0;entryDx=0;entryDy=0;" edge="1" parent="1" source="cc5oqjslnrZ3DRCShtl0-81" target="cc5oqjslnrZ3DRCShtl0-86">
          <mxGeometry width="50" height="50" relative="1" as="geometry">
            <mxPoint x="416" y="1117" as="sourcePoint" />
            <mxPoint x="679" y="1102" as="targetPoint" />
          </mxGeometry>
        </mxCell>
        <mxCell id="-d3J0LfeknoKQkhsuHQo-34" value="" style="endArrow=none;html=1;rounded=0;exitX=0.5;exitY=1;exitDx=0;exitDy=0;entryX=0.5;entryY=0;entryDx=0;entryDy=0;" edge="1" parent="1" source="cc5oqjslnrZ3DRCShtl0-81" target="cc5oqjslnrZ3DRCShtl0-85">
          <mxGeometry width="50" height="50" relative="1" as="geometry">
            <mxPoint x="391" y="1117" as="sourcePoint" />
            <mxPoint x="671" y="1057" as="targetPoint" />
          </mxGeometry>
        </mxCell>
        <mxCell id="-d3J0LfeknoKQkhsuHQo-35" value="" style="endArrow=none;html=1;rounded=0;exitX=0.18;exitY=1.075;exitDx=0;exitDy=0;entryX=0.564;entryY=0;entryDx=0;entryDy=0;exitPerimeter=0;entryPerimeter=0;" edge="1" parent="1" source="cc5oqjslnrZ3DRCShtl0-81" target="cc5oqjslnrZ3DRCShtl0-84">
          <mxGeometry width="50" height="50" relative="1" as="geometry">
            <mxPoint x="377" y="1113" as="sourcePoint" />
            <mxPoint x="677" y="1011" as="targetPoint" />
          </mxGeometry>
        </mxCell>
        <mxCell id="-d3J0LfeknoKQkhsuHQo-36" value="" style="endArrow=none;html=1;rounded=0;exitX=0;exitY=1;exitDx=0;exitDy=0;entryX=0.964;entryY=0.275;entryDx=0;entryDy=0;entryPerimeter=0;" edge="1" parent="1" source="cc5oqjslnrZ3DRCShtl0-81" target="cc5oqjslnrZ3DRCShtl0-83">
          <mxGeometry width="50" height="50" relative="1" as="geometry">
            <mxPoint x="357" y="1114" as="sourcePoint" />
            <mxPoint x="105" y="1177" as="targetPoint" />
          </mxGeometry>
        </mxCell>
        <mxCell id="-d3J0LfeknoKQkhsuHQo-37" value="" style="endArrow=none;html=1;rounded=0;exitX=1;exitY=0.5;exitDx=0;exitDy=0;entryX=0.07;entryY=0.3;entryDx=0;entryDy=0;entryPerimeter=0;" edge="1" parent="1" source="cc5oqjslnrZ3DRCShtl0-81" target="cc5oqjslnrZ3DRCShtl0-82">
          <mxGeometry width="50" height="50" relative="1" as="geometry">
            <mxPoint x="350" y="1120" as="sourcePoint" />
            <mxPoint x="548" y="979" as="targetPoint" />
          </mxGeometry>
        </mxCell>
        <mxCell id="-d3J0LfeknoKQkhsuHQo-52" value="&lt;font style=&quot;font-size: 16px;&quot;&gt;&lt;span&gt;Animal&lt;/span&gt;&lt;/font&gt;" style="whiteSpace=wrap;html=1;align=center;strokeWidth=2;fontStyle=1" vertex="1" parent="1">
          <mxGeometry x="-495.20000000000005" y="1020" width="100" height="40" as="geometry" />
        </mxCell>
        <mxCell id="-d3J0LfeknoKQkhsuHQo-53" value="&lt;font style=&quot;font-size: 16px;&quot;&gt;&lt;span&gt;Evento&lt;/span&gt;&lt;/font&gt;" style="whiteSpace=wrap;html=1;align=center;strokeWidth=2;fontStyle=1" vertex="1" parent="1">
          <mxGeometry x="1864.5" y="350" width="100" height="40" as="geometry" />
        </mxCell>
        <mxCell id="-d3J0LfeknoKQkhsuHQo-54" value="&lt;font size=&quot;1&quot;&gt;&lt;b style=&quot;font-size: 16px;&quot;&gt;Num_Jaula&lt;/b&gt;&lt;/font&gt;" style="ellipse;whiteSpace=wrap;html=1;align=center;shadow=0;strokeColor=default;strokeWidth=2;fontFamily=Helvetica;fontSize=12;fontColor=default;fillColor=default;" vertex="1" parent="1">
          <mxGeometry x="-680" y="1110" width="110" height="40" as="geometry" />
        </mxCell>
        <mxCell id="-d3J0LfeknoKQkhsuHQo-55" value="&lt;font style=&quot;font-size: 16px;&quot;&gt;&lt;b&gt;Nombre&lt;br&gt;&lt;/b&gt;&lt;/font&gt;" style="ellipse;whiteSpace=wrap;html=1;align=center;shadow=0;strokeColor=default;strokeWidth=2;fontFamily=Helvetica;fontSize=12;fontColor=default;fillColor=default;" vertex="1" parent="1">
          <mxGeometry x="-584.1" y="1140" width="110" height="40" as="geometry" />
        </mxCell>
        <mxCell id="-d3J0LfeknoKQkhsuHQo-56" value="&lt;font size=&quot;1&quot;&gt;&lt;b style=&quot;font-size: 16px;&quot;&gt;Especie&lt;/b&gt;&lt;/font&gt;" style="ellipse;whiteSpace=wrap;html=1;align=center;shadow=0;strokeColor=default;strokeWidth=2;fontFamily=Helvetica;fontSize=12;fontColor=default;fillColor=default;" vertex="1" parent="1">
          <mxGeometry x="-724.1" y="995" width="110" height="40" as="geometry" />
        </mxCell>
        <mxCell id="-d3J0LfeknoKQkhsuHQo-57" value="&lt;font style=&quot;font-size: 16px;&quot;&gt;&lt;b&gt;Peso&lt;br&gt;&lt;/b&gt;&lt;/font&gt;" style="ellipse;whiteSpace=wrap;html=1;align=center;shadow=0;strokeColor=default;strokeWidth=2;fontFamily=Helvetica;fontSize=12;fontColor=default;fillColor=default;" vertex="1" parent="1">
          <mxGeometry x="-274.1" y="1060" width="110" height="40" as="geometry" />
        </mxCell>
        <mxCell id="-d3J0LfeknoKQkhsuHQo-58" value="&lt;font style=&quot;font-size: 16px;&quot;&gt;&lt;b&gt;Altura&lt;br&gt;&lt;/b&gt;&lt;/font&gt;" style="ellipse;whiteSpace=wrap;html=1;align=center;shadow=0;strokeColor=default;strokeWidth=2;fontFamily=Helvetica;fontSize=12;fontColor=default;fillColor=default;" vertex="1" parent="1">
          <mxGeometry x="-318.20000000000005" y="1115" width="110" height="40" as="geometry" />
        </mxCell>
        <mxCell id="-d3J0LfeknoKQkhsuHQo-59" value="&lt;font style=&quot;font-size: 16px;&quot;&gt;&lt;b&gt;Sexo&lt;br&gt;&lt;/b&gt;&lt;/font&gt;" style="ellipse;whiteSpace=wrap;html=1;align=center;shadow=0;strokeColor=default;strokeWidth=2;fontFamily=Helvetica;fontSize=12;fontColor=default;fillColor=default;" vertex="1" parent="1">
          <mxGeometry x="-350.00000000000006" y="1170" width="110" height="40" as="geometry" />
        </mxCell>
        <mxCell id="-d3J0LfeknoKQkhsuHQo-61" value="&lt;font style=&quot;font-size: 16px;&quot;&gt;&lt;b&gt;Alimentacion&lt;br&gt;&lt;/b&gt;&lt;/font&gt;" style="ellipse;whiteSpace=wrap;html=1;align=center;shadow=0;strokeColor=default;strokeWidth=2;fontFamily=Helvetica;fontSize=12;fontColor=default;fillColor=default;" vertex="1" parent="1">
          <mxGeometry x="-460" y="1140" width="110" height="40" as="geometry" />
        </mxCell>
        <mxCell id="-d3J0LfeknoKQkhsuHQo-63" value="" style="endArrow=none;html=1;rounded=0;entryX=1;entryY=0.5;entryDx=0;entryDy=0;exitX=0;exitY=0.75;exitDx=0;exitDy=0;" edge="1" parent="1" source="-d3J0LfeknoKQkhsuHQo-52" target="Y-_55_ya9VjyHDabUnFr-1">
          <mxGeometry width="50" height="50" relative="1" as="geometry">
            <mxPoint x="-243.2" y="980" as="sourcePoint" />
            <mxPoint x="-614.0999999999999" y="1056" as="targetPoint" />
          </mxGeometry>
        </mxCell>
        <mxCell id="-d3J0LfeknoKQkhsuHQo-67" value="" style="endArrow=none;html=1;rounded=0;entryX=0.5;entryY=0;entryDx=0;entryDy=0;exitX=0.25;exitY=1;exitDx=0;exitDy=0;" edge="1" parent="1" source="-d3J0LfeknoKQkhsuHQo-52" target="-d3J0LfeknoKQkhsuHQo-54">
          <mxGeometry width="50" height="50" relative="1" as="geometry">
            <mxPoint x="-442.20000000000005" y="1028" as="sourcePoint" />
            <mxPoint x="-468.20000000000005" y="1000" as="targetPoint" />
          </mxGeometry>
        </mxCell>
        <mxCell id="-d3J0LfeknoKQkhsuHQo-68" value="" style="endArrow=none;html=1;rounded=0;entryX=0.5;entryY=0;entryDx=0;entryDy=0;exitX=0.5;exitY=1;exitDx=0;exitDy=0;" edge="1" parent="1" source="-d3J0LfeknoKQkhsuHQo-52" target="-d3J0LfeknoKQkhsuHQo-55">
          <mxGeometry width="50" height="50" relative="1" as="geometry">
            <mxPoint x="-410.20000000000005" y="1030" as="sourcePoint" />
            <mxPoint x="-347.20000000000005" y="969" as="targetPoint" />
          </mxGeometry>
        </mxCell>
        <mxCell id="-d3J0LfeknoKQkhsuHQo-69" value="" style="endArrow=none;html=1;rounded=0;entryX=1;entryY=0.5;entryDx=0;entryDy=0;exitX=0;exitY=0.25;exitDx=0;exitDy=0;" edge="1" parent="1" source="-d3J0LfeknoKQkhsuHQo-52" target="-d3J0LfeknoKQkhsuHQo-56">
          <mxGeometry width="50" height="50" relative="1" as="geometry">
            <mxPoint x="-385.20000000000005" y="1030" as="sourcePoint" />
            <mxPoint x="-263.2" y="980" as="targetPoint" />
          </mxGeometry>
        </mxCell>
        <mxCell id="-d3J0LfeknoKQkhsuHQo-70" value="" style="endArrow=none;html=1;rounded=0;entryX=0.073;entryY=0.167;entryDx=0;entryDy=0;entryPerimeter=0;exitX=1;exitY=0.75;exitDx=0;exitDy=0;" edge="1" parent="1" source="-d3J0LfeknoKQkhsuHQo-52" target="-d3J0LfeknoKQkhsuHQo-57">
          <mxGeometry width="50" height="50" relative="1" as="geometry">
            <mxPoint x="-354.1" y="1060" as="sourcePoint" />
            <mxPoint x="-233.2" y="1025" as="targetPoint" />
          </mxGeometry>
        </mxCell>
        <mxCell id="-d3J0LfeknoKQkhsuHQo-71" value="" style="endArrow=none;html=1;rounded=0;entryX=0.182;entryY=0;entryDx=0;entryDy=0;entryPerimeter=0;exitX=1;exitY=1;exitDx=0;exitDy=0;" edge="1" parent="1" source="-d3J0LfeknoKQkhsuHQo-52" target="-d3J0LfeknoKQkhsuHQo-58">
          <mxGeometry width="50" height="50" relative="1" as="geometry">
            <mxPoint x="-393.20000000000005" y="1050" as="sourcePoint" />
            <mxPoint x="-235.2" y="1067" as="targetPoint" />
          </mxGeometry>
        </mxCell>
        <mxCell id="-d3J0LfeknoKQkhsuHQo-72" value="" style="endArrow=none;html=1;rounded=0;entryX=0.358;entryY=0.067;entryDx=0;entryDy=0;entryPerimeter=0;exitX=0.887;exitY=1.083;exitDx=0;exitDy=0;exitPerimeter=0;" edge="1" parent="1" source="-d3J0LfeknoKQkhsuHQo-52" target="-d3J0LfeknoKQkhsuHQo-59">
          <mxGeometry width="50" height="50" relative="1" as="geometry">
            <mxPoint x="-383.20000000000005" y="1060" as="sourcePoint" />
            <mxPoint x="-273.20000000000005" y="1110" as="targetPoint" />
          </mxGeometry>
        </mxCell>
        <mxCell id="-d3J0LfeknoKQkhsuHQo-73" value="" style="endArrow=none;html=1;rounded=0;entryX=0.5;entryY=0;entryDx=0;entryDy=0;exitX=0.593;exitY=0.983;exitDx=0;exitDy=0;exitPerimeter=0;" edge="1" parent="1" source="-d3J0LfeknoKQkhsuHQo-52" target="-d3J0LfeknoKQkhsuHQo-61">
          <mxGeometry width="50" height="50" relative="1" as="geometry">
            <mxPoint x="-396.20000000000005" y="1073" as="sourcePoint" />
            <mxPoint x="-294.20000000000005" y="1163" as="targetPoint" />
          </mxGeometry>
        </mxCell>
        <mxCell id="-d3J0LfeknoKQkhsuHQo-74" value="&lt;font style=&quot;font-size: 16px;&quot;&gt;&lt;b&gt;Fecha&lt;br&gt;&lt;/b&gt;&lt;/font&gt;" style="ellipse;whiteSpace=wrap;html=1;align=center;shadow=0;strokeColor=default;strokeWidth=2;fontFamily=Helvetica;fontSize=12;fontColor=default;fillColor=default;" vertex="1" parent="1">
          <mxGeometry x="1675" y="255" width="110" height="40" as="geometry" />
        </mxCell>
        <mxCell id="-d3J0LfeknoKQkhsuHQo-75" value="&lt;font style=&quot;font-size: 16px;&quot;&gt;&lt;b&gt;tipoEvento&lt;br&gt;&lt;/b&gt;&lt;/font&gt;" style="ellipse;whiteSpace=wrap;html=1;align=center;shadow=0;strokeColor=default;strokeWidth=2;fontFamily=Helvetica;fontSize=12;fontColor=default;fillColor=default;" vertex="1" parent="1">
          <mxGeometry x="1785" y="215" width="110" height="40" as="geometry" />
        </mxCell>
        <mxCell id="-d3J0LfeknoKQkhsuHQo-76" value="&lt;font style=&quot;font-size: 16px;&quot;&gt;&lt;b&gt;Capacidad&lt;br&gt;&lt;/b&gt;&lt;/font&gt;" style="ellipse;whiteSpace=wrap;html=1;align=center;shadow=0;strokeColor=default;strokeWidth=2;fontFamily=Helvetica;fontSize=12;fontColor=default;fillColor=default;" vertex="1" parent="1">
          <mxGeometry x="1915" y="215" width="110" height="40" as="geometry" />
        </mxCell>
        <mxCell id="-d3J0LfeknoKQkhsuHQo-77" value="&lt;font style=&quot;font-size: 16px;&quot;&gt;&lt;b&gt;listaAsistentes&lt;br&gt;&lt;/b&gt;&lt;/font&gt;" style="ellipse;whiteSpace=wrap;html=1;align=center;shadow=0;strokeColor=default;strokeWidth=2;fontFamily=Helvetica;fontSize=12;fontColor=default;fillColor=default;" vertex="1" parent="1">
          <mxGeometry x="2005" y="310" width="130" height="40" as="geometry" />
        </mxCell>
        <mxCell id="-d3J0LfeknoKQkhsuHQo-78" value="" style="endArrow=none;html=1;rounded=0;exitX=1;exitY=0.5;exitDx=0;exitDy=0;entryX=0;entryY=0;entryDx=0;entryDy=0;" edge="1" parent="1" source="-d3J0LfeknoKQkhsuHQo-74" target="-d3J0LfeknoKQkhsuHQo-53">
          <mxGeometry width="50" height="50" relative="1" as="geometry">
            <mxPoint x="2015" y="235" as="sourcePoint" />
            <mxPoint x="2065" y="185" as="targetPoint" />
          </mxGeometry>
        </mxCell>
        <mxCell id="-d3J0LfeknoKQkhsuHQo-79" value="" style="endArrow=none;html=1;rounded=0;exitX=1;exitY=0.5;exitDx=0;exitDy=0;entryX=0;entryY=0.5;entryDx=0;entryDy=0;" edge="1" parent="1" source="-d3J0LfeknoKQkhsuHQo-53" target="-d3J0LfeknoKQkhsuHQo-77">
          <mxGeometry width="50" height="50" relative="1" as="geometry">
            <mxPoint x="1795" y="355" as="sourcePoint" />
            <mxPoint x="1855" y="345" as="targetPoint" />
          </mxGeometry>
        </mxCell>
        <mxCell id="-d3J0LfeknoKQkhsuHQo-81" value="" style="endArrow=none;html=1;rounded=0;" edge="1" parent="1" source="-d3J0LfeknoKQkhsuHQo-76" target="-d3J0LfeknoKQkhsuHQo-53">
          <mxGeometry width="50" height="50" relative="1" as="geometry">
            <mxPoint x="1846" y="406" as="sourcePoint" />
            <mxPoint x="1865" y="365" as="targetPoint" />
          </mxGeometry>
        </mxCell>
        <mxCell id="TdeLC3_kOeJKwItWiQyu-32" style="edgeStyle=orthogonalEdgeStyle;rounded=0;orthogonalLoop=1;jettySize=auto;html=1;exitX=0.5;exitY=0;exitDx=0;exitDy=0;entryX=0.75;entryY=1;entryDx=0;entryDy=0;endArrow=none;endFill=0;" edge="1" parent="1" source="-d3J0LfeknoKQkhsuHQo-83" target="cc5oqjslnrZ3DRCShtl0-51">
          <mxGeometry relative="1" as="geometry" />
        </mxCell>
        <mxCell id="TdeLC3_kOeJKwItWiQyu-36" style="edgeStyle=orthogonalEdgeStyle;rounded=0;orthogonalLoop=1;jettySize=auto;html=1;exitX=1;exitY=0.5;exitDx=0;exitDy=0;entryX=0;entryY=0;entryDx=0;entryDy=0;endArrow=none;endFill=0;" edge="1" parent="1" source="-d3J0LfeknoKQkhsuHQo-83" target="cc5oqjslnrZ3DRCShtl0-81">
          <mxGeometry relative="1" as="geometry">
            <Array as="points">
              <mxPoint x="-70" y="960" />
              <mxPoint x="275" y="960" />
            </Array>
          </mxGeometry>
        </mxCell>
        <mxCell id="-d3J0LfeknoKQkhsuHQo-83" value="&lt;span style=&quot;font-size: 18px;&quot;&gt;&lt;b&gt;Trabajar&lt;/b&gt;&lt;/span&gt;" style="rhombus;whiteSpace=wrap;html=1;" vertex="1" parent="1">
          <mxGeometry x="-220" y="790" width="150" height="50" as="geometry" />
        </mxCell>
        <mxCell id="TdeLC3_kOeJKwItWiQyu-39" style="edgeStyle=orthogonalEdgeStyle;rounded=0;orthogonalLoop=1;jettySize=auto;html=1;exitX=0.5;exitY=0;exitDx=0;exitDy=0;entryX=0.25;entryY=1;entryDx=0;entryDy=0;endArrow=classic;endFill=1;shape=flexArrow;" edge="1" parent="1" source="-d3J0LfeknoKQkhsuHQo-84" target="cc5oqjslnrZ3DRCShtl0-52">
          <mxGeometry relative="1" as="geometry" />
        </mxCell>
        <mxCell id="TdeLC3_kOeJKwItWiQyu-43" style="edgeStyle=orthogonalEdgeStyle;rounded=0;orthogonalLoop=1;jettySize=auto;html=1;exitX=0.5;exitY=1;exitDx=0;exitDy=0;entryX=0.75;entryY=0;entryDx=0;entryDy=0;endArrow=none;endFill=0;" edge="1" parent="1" source="-d3J0LfeknoKQkhsuHQo-84" target="-d3J0LfeknoKQkhsuHQo-52">
          <mxGeometry relative="1" as="geometry" />
        </mxCell>
        <mxCell id="-d3J0LfeknoKQkhsuHQo-84" value="&lt;font size=&quot;1&quot;&gt;&lt;b style=&quot;font-size: 18px;&quot;&gt;Cuidar&lt;/b&gt;&lt;/font&gt;" style="rhombus;whiteSpace=wrap;html=1;" vertex="1" parent="1">
          <mxGeometry x="15.900000000000006" y="750" width="150" height="50" as="geometry" />
        </mxCell>
        <mxCell id="TdeLC3_kOeJKwItWiQyu-37" style="edgeStyle=orthogonalEdgeStyle;rounded=0;orthogonalLoop=1;jettySize=auto;html=1;exitX=1;exitY=0.5;exitDx=0;exitDy=0;entryX=0;entryY=0.5;entryDx=0;entryDy=0;shape=flexArrow;" edge="1" parent="1" source="huwh_n98xhKvYkgfeiNL-1" target="cc5oqjslnrZ3DRCShtl0-81">
          <mxGeometry relative="1" as="geometry" />
        </mxCell>
        <mxCell id="TdeLC3_kOeJKwItWiQyu-48" style="edgeStyle=orthogonalEdgeStyle;rounded=0;orthogonalLoop=1;jettySize=auto;html=1;entryX=1;entryY=0.25;entryDx=0;entryDy=0;shape=link;exitX=0;exitY=0.5;exitDx=0;exitDy=0;" edge="1" parent="1" source="huwh_n98xhKvYkgfeiNL-1" target="-d3J0LfeknoKQkhsuHQo-52">
          <mxGeometry relative="1" as="geometry">
            <Array as="points">
              <mxPoint x="-100" y="1030" />
            </Array>
            <mxPoint x="-140" y="1070" as="sourcePoint" />
          </mxGeometry>
        </mxCell>
        <mxCell id="huwh_n98xhKvYkgfeiNL-1" value="&lt;span style=&quot;font-size: 18px;&quot;&gt;&lt;b&gt;Pertenecer&lt;/b&gt;&lt;/span&gt;" style="rhombus;whiteSpace=wrap;html=1;" vertex="1" parent="1">
          <mxGeometry x="-100" y="1058" width="150" height="50" as="geometry" />
        </mxCell>
        <mxCell id="TdeLC3_kOeJKwItWiQyu-40" style="edgeStyle=orthogonalEdgeStyle;rounded=0;orthogonalLoop=1;jettySize=auto;html=1;exitX=0.5;exitY=0;exitDx=0;exitDy=0;entryX=0.75;entryY=1;entryDx=0;entryDy=0;endArrow=none;endFill=0;" edge="1" parent="1" source="huwh_n98xhKvYkgfeiNL-4" target="cc5oqjslnrZ3DRCShtl0-52">
          <mxGeometry relative="1" as="geometry" />
        </mxCell>
        <mxCell id="huwh_n98xhKvYkgfeiNL-4" value="&lt;font size=&quot;1&quot;&gt;&lt;b style=&quot;font-size: 18px;&quot;&gt;Laborar&lt;/b&gt;&lt;/font&gt;" style="rhombus;whiteSpace=wrap;html=1;" vertex="1" parent="1">
          <mxGeometry x="205.9" y="750" width="150" height="50" as="geometry" />
        </mxCell>
        <mxCell id="TdeLC3_kOeJKwItWiQyu-44" style="edgeStyle=orthogonalEdgeStyle;rounded=0;orthogonalLoop=1;jettySize=auto;html=1;exitX=0;exitY=0.5;exitDx=0;exitDy=0;entryX=1;entryY=0.25;entryDx=0;entryDy=0;endArrow=none;endFill=0;" edge="1" parent="1" source="huwh_n98xhKvYkgfeiNL-7" target="cc5oqjslnrZ3DRCShtl0-81">
          <mxGeometry relative="1" as="geometry" />
        </mxCell>
        <mxCell id="huwh_n98xhKvYkgfeiNL-7" value="&lt;span style=&quot;font-size: 18px;&quot;&gt;&lt;b&gt;Distribuir&lt;/b&gt;&lt;/span&gt;" style="rhombus;whiteSpace=wrap;html=1;" vertex="1" parent="1">
          <mxGeometry x="575" y="870" width="150" height="50" as="geometry" />
        </mxCell>
        <mxCell id="huwh_n98xhKvYkgfeiNL-8" value="" style="endArrow=none;html=1;rounded=0;entryX=0;entryY=0.5;entryDx=0;entryDy=0;exitX=1;exitY=0.5;exitDx=0;exitDy=0;startArrow=none;startFill=0;endFill=0;edgeStyle=orthogonalEdgeStyle;" edge="1" parent="1" source="huwh_n98xhKvYkgfeiNL-7" target="-d3J0LfeknoKQkhsuHQo-6">
          <mxGeometry width="50" height="50" relative="1" as="geometry">
            <mxPoint x="1490" y="1250" as="sourcePoint" />
            <mxPoint x="1540" y="1200" as="targetPoint" />
          </mxGeometry>
        </mxCell>
        <mxCell id="TdeLC3_kOeJKwItWiQyu-33" style="edgeStyle=orthogonalEdgeStyle;rounded=0;orthogonalLoop=1;jettySize=auto;html=1;exitX=0.5;exitY=0;exitDx=0;exitDy=0;entryX=0.25;entryY=1;entryDx=0;entryDy=0;shape=flexArrow;" edge="1" parent="1" source="maE8RR4jbbAmRZyhBtNp-1" target="cc5oqjslnrZ3DRCShtl0-51">
          <mxGeometry relative="1" as="geometry" />
        </mxCell>
        <mxCell id="TdeLC3_kOeJKwItWiQyu-35" style="edgeStyle=orthogonalEdgeStyle;rounded=0;orthogonalLoop=1;jettySize=auto;html=1;exitX=0.5;exitY=1;exitDx=0;exitDy=0;entryX=0.182;entryY=-0.025;entryDx=0;entryDy=0;entryPerimeter=0;endArrow=none;endFill=0;" edge="1" parent="1" source="maE8RR4jbbAmRZyhBtNp-1" target="-d3J0LfeknoKQkhsuHQo-52">
          <mxGeometry relative="1" as="geometry">
            <Array as="points">
              <mxPoint x="-314" y="860" />
              <mxPoint x="-477" y="860" />
            </Array>
          </mxGeometry>
        </mxCell>
        <mxCell id="maE8RR4jbbAmRZyhBtNp-1" value="&lt;span style=&quot;font-size: 18px;&quot;&gt;&lt;b&gt;Atender&lt;/b&gt;&lt;/span&gt;" style="rhombus;whiteSpace=wrap;html=1;" vertex="1" parent="1">
          <mxGeometry x="-389.1" y="760" width="150" height="50" as="geometry" />
        </mxCell>
        <mxCell id="Y-_55_ya9VjyHDabUnFr-56" style="rounded=0;orthogonalLoop=1;jettySize=auto;html=1;exitX=1;exitY=0.5;exitDx=0;exitDy=0;entryX=0;entryY=0.5;entryDx=0;entryDy=0;endArrow=none;endFill=0;" edge="1" parent="1" source="maE8RR4jbbAmRZyhBtNp-5" target="maE8RR4jbbAmRZyhBtNp-1">
          <mxGeometry relative="1" as="geometry" />
        </mxCell>
        <mxCell id="maE8RR4jbbAmRZyhBtNp-5" value="&lt;span style=&quot;font-size: 16px;&quot;&gt;&lt;b&gt;mismoBioma&lt;/b&gt;&lt;/span&gt;" style="ellipse;whiteSpace=wrap;html=1;align=center;strokeWidth=2;" vertex="1" parent="1">
          <mxGeometry x="-594.1" y="765" width="120" height="40" as="geometry" />
        </mxCell>
        <mxCell id="maE8RR4jbbAmRZyhBtNp-8" value="" style="endArrow=none;html=1;rounded=0;exitX=0.5;exitY=1;exitDx=0;exitDy=0;entryX=0.25;entryY=0;entryDx=0;entryDy=0;" edge="1" parent="1" source="-d3J0LfeknoKQkhsuHQo-75" target="-d3J0LfeknoKQkhsuHQo-53">
          <mxGeometry width="50" height="50" relative="1" as="geometry">
            <mxPoint x="1966" y="264" as="sourcePoint" />
            <mxPoint x="1920" y="325" as="targetPoint" />
          </mxGeometry>
        </mxCell>
        <mxCell id="fioEPVJvo6Oif7lgc-Ir-31" value="" style="endArrow=none;html=1;rounded=0;entryX=0.5;entryY=1;entryDx=0;entryDy=0;strokeWidth=2;elbow=vertical;exitX=0.5;exitY=0;exitDx=0;exitDy=0;" edge="1" parent="1" source="fioEPVJvo6Oif7lgc-Ir-32" target="-d3J0LfeknoKQkhsuHQo-31">
          <mxGeometry relative="1" as="geometry">
            <mxPoint x="1405" y="480" as="sourcePoint" />
            <mxPoint x="1442" y="424" as="targetPoint" />
          </mxGeometry>
        </mxCell>
        <mxCell id="fioEPVJvo6Oif7lgc-Ir-32" value="&lt;font style=&quot;font-size: 16px;&quot;&gt;&lt;b&gt;&lt;u&gt;Id_Cliente&lt;/u&gt;&lt;/b&gt;&lt;/font&gt;" style="ellipse;whiteSpace=wrap;html=1;align=center;strokeWidth=2;" vertex="1" parent="1">
          <mxGeometry x="1355" y="420" width="100" height="40" as="geometry" />
        </mxCell>
        <mxCell id="fioEPVJvo6Oif7lgc-Ir-39" value="&lt;font style=&quot;font-size: 16px;&quot;&gt;&lt;b&gt;Promocion&lt;br&gt;&lt;/b&gt;&lt;/font&gt;" style="ellipse;whiteSpace=wrap;html=1;align=center;shadow=0;strokeColor=default;strokeWidth=2;fontFamily=Helvetica;fontSize=12;fontColor=default;fillColor=default;" vertex="1" parent="1">
          <mxGeometry x="1495" y="440" width="110" height="40" as="geometry" />
        </mxCell>
        <mxCell id="fioEPVJvo6Oif7lgc-Ir-40" value="&lt;font style=&quot;font-size: 16px;&quot;&gt;&lt;b&gt;tiposServicio&lt;br&gt;&lt;/b&gt;&lt;/font&gt;" style="ellipse;whiteSpace=wrap;html=1;align=center;shadow=0;strokeColor=default;strokeWidth=1;fontFamily=Helvetica;fontSize=12;fontColor=default;fillColor=default;dashed=1;" vertex="1" parent="1">
          <mxGeometry x="1270" y="-80" width="110" height="40" as="geometry" />
        </mxCell>
        <mxCell id="fioEPVJvo6Oif7lgc-Ir-41" value="&lt;font style=&quot;font-size: 16px;&quot;&gt;&lt;b&gt;Fecha&lt;br&gt;&lt;/b&gt;&lt;/font&gt;" style="ellipse;whiteSpace=wrap;html=1;align=center;shadow=0;strokeColor=default;strokeWidth=2;fontFamily=Helvetica;fontSize=12;fontColor=default;fillColor=default;" vertex="1" parent="1">
          <mxGeometry x="1265" y="-25" width="110" height="40" as="geometry" />
        </mxCell>
        <mxCell id="fioEPVJvo6Oif7lgc-Ir-42" value="&lt;font style=&quot;font-size: 16px;&quot;&gt;&lt;b&gt;&lt;u&gt;NumTicket&lt;/u&gt;&lt;/b&gt;&lt;/font&gt;" style="ellipse;whiteSpace=wrap;html=1;align=center;strokeWidth=2;" vertex="1" parent="1">
          <mxGeometry x="1020" y="-105" width="100" height="40" as="geometry" />
        </mxCell>
        <mxCell id="fioEPVJvo6Oif7lgc-Ir-43" style="rounded=0;orthogonalLoop=1;jettySize=auto;html=1;exitX=1;exitY=0;exitDx=0;exitDy=0;entryX=0;entryY=0.75;entryDx=0;entryDy=0;endArrow=none;endFill=0;entryPerimeter=0;" edge="1" parent="1" source="fioEPVJvo6Oif7lgc-Ir-68" target="fioEPVJvo6Oif7lgc-Ir-40">
          <mxGeometry relative="1" as="geometry">
            <mxPoint x="1299.5" y="75" as="targetPoint" />
            <mxPoint x="1125" y="25" as="sourcePoint" />
          </mxGeometry>
        </mxCell>
        <mxCell id="fioEPVJvo6Oif7lgc-Ir-44" value="&lt;font style=&quot;font-size: 16px;&quot;&gt;&lt;b&gt;costoTotal&lt;br&gt;&lt;/b&gt;&lt;/font&gt;" style="ellipse;whiteSpace=wrap;html=1;align=center;shadow=0;strokeColor=default;strokeWidth=2;fontFamily=Helvetica;fontSize=12;fontColor=default;fillColor=default;" vertex="1" parent="1">
          <mxGeometry x="1140" y="-95" width="110" height="40" as="geometry" />
        </mxCell>
        <mxCell id="fioEPVJvo6Oif7lgc-Ir-45" value="&lt;font size=&quot;1&quot;&gt;&lt;b style=&quot;font-size: 16px;&quot;&gt;costoUnitario&lt;/b&gt;&lt;/font&gt;" style="ellipse;whiteSpace=wrap;html=1;align=center;dashed=1;" vertex="1" parent="1">
          <mxGeometry x="1240" y="30" width="134.5" height="40" as="geometry" />
        </mxCell>
        <mxCell id="fioEPVJvo6Oif7lgc-Ir-46" style="edgeStyle=orthogonalEdgeStyle;rounded=0;orthogonalLoop=1;jettySize=auto;html=1;exitX=0.5;exitY=1;exitDx=0;exitDy=0;" edge="1" parent="1" source="CCVpfl_Kz8rF-1x_p7pF-4" target="-d3J0LfeknoKQkhsuHQo-31">
          <mxGeometry relative="1" as="geometry">
            <mxPoint x="1405" y="270" as="sourcePoint" />
            <mxPoint x="1380" y="320" as="targetPoint" />
          </mxGeometry>
        </mxCell>
        <mxCell id="fioEPVJvo6Oif7lgc-Ir-49" style="rounded=0;orthogonalLoop=1;jettySize=auto;html=1;entryX=0;entryY=0.5;entryDx=0;entryDy=0;endArrow=none;endFill=0;exitX=1;exitY=0.25;exitDx=0;exitDy=0;" edge="1" parent="1" source="fioEPVJvo6Oif7lgc-Ir-68" target="fioEPVJvo6Oif7lgc-Ir-41">
          <mxGeometry relative="1" as="geometry">
            <mxPoint x="1215" y="-15" as="targetPoint" />
            <mxPoint x="1120" y="45" as="sourcePoint" />
          </mxGeometry>
        </mxCell>
        <mxCell id="fioEPVJvo6Oif7lgc-Ir-50" style="rounded=0;orthogonalLoop=1;jettySize=auto;html=1;entryX=0.364;entryY=1;entryDx=0;entryDy=0;endArrow=none;endFill=0;entryPerimeter=0;exitX=0.75;exitY=0;exitDx=0;exitDy=0;" edge="1" parent="1" source="fioEPVJvo6Oif7lgc-Ir-68" target="fioEPVJvo6Oif7lgc-Ir-44">
          <mxGeometry relative="1" as="geometry">
            <mxPoint x="1065" y="-75" as="targetPoint" />
            <mxPoint x="1114" y="7" as="sourcePoint" />
          </mxGeometry>
        </mxCell>
        <mxCell id="fioEPVJvo6Oif7lgc-Ir-51" style="rounded=0;orthogonalLoop=1;jettySize=auto;html=1;entryX=0;entryY=0.5;entryDx=0;entryDy=0;endArrow=none;endFill=0;exitX=1;exitY=0.5;exitDx=0;exitDy=0;" edge="1" parent="1" source="fioEPVJvo6Oif7lgc-Ir-68" target="fioEPVJvo6Oif7lgc-Ir-45">
          <mxGeometry relative="1" as="geometry">
            <mxPoint x="1160" y="75" as="targetPoint" />
            <mxPoint x="1085.04" y="45" as="sourcePoint" />
          </mxGeometry>
        </mxCell>
        <mxCell id="fioEPVJvo6Oif7lgc-Ir-56" style="rounded=0;orthogonalLoop=1;jettySize=auto;html=1;exitX=1;exitY=0.5;exitDx=0;exitDy=0;entryX=0;entryY=0.5;entryDx=0;entryDy=0;endArrow=none;endFill=0;" edge="1" parent="1" source="-d3J0LfeknoKQkhsuHQo-31">
          <mxGeometry relative="1" as="geometry">
            <mxPoint x="1565" y="370" as="targetPoint" />
            <mxPoint x="1445" y="375" as="sourcePoint" />
          </mxGeometry>
        </mxCell>
        <mxCell id="TdeLC3_kOeJKwItWiQyu-41" style="edgeStyle=orthogonalEdgeStyle;rounded=0;orthogonalLoop=1;jettySize=auto;html=1;exitX=0.5;exitY=1;exitDx=0;exitDy=0;entryX=0.65;entryY=0.05;entryDx=0;entryDy=0;entryPerimeter=0;" edge="1" parent="1" source="huwh_n98xhKvYkgfeiNL-4" target="cc5oqjslnrZ3DRCShtl0-81">
          <mxGeometry relative="1" as="geometry">
            <Array as="points">
              <mxPoint x="281" y="890" />
              <mxPoint x="340" y="890" />
            </Array>
          </mxGeometry>
        </mxCell>
        <mxCell id="fioEPVJvo6Oif7lgc-Ir-59" value="&lt;font style=&quot;font-size: 16px;&quot;&gt;&lt;b&gt;Descuento&lt;br&gt;&lt;/b&gt;&lt;/font&gt;" style="ellipse;whiteSpace=wrap;html=1;align=center;shadow=0;strokeColor=default;strokeWidth=2;fontFamily=Helvetica;fontSize=12;fontColor=default;fillColor=default;" vertex="1" parent="1">
          <mxGeometry x="1655.5" y="440" width="110" height="40" as="geometry" />
        </mxCell>
        <mxCell id="fioEPVJvo6Oif7lgc-Ir-62" style="rounded=0;orthogonalLoop=1;jettySize=auto;html=1;exitX=0.564;exitY=0.05;exitDx=0;exitDy=0;entryX=0.314;entryY=1.017;entryDx=0;entryDy=0;endArrow=none;endFill=0;entryPerimeter=0;exitPerimeter=0;" edge="1" parent="1" source="fioEPVJvo6Oif7lgc-Ir-39" target="Y-_55_ya9VjyHDabUnFr-54">
          <mxGeometry relative="1" as="geometry">
            <mxPoint x="1618.04" y="390" as="targetPoint" />
            <mxPoint x="1455" y="400" as="sourcePoint" />
          </mxGeometry>
        </mxCell>
        <mxCell id="fioEPVJvo6Oif7lgc-Ir-63" style="rounded=0;orthogonalLoop=1;jettySize=auto;html=1;endArrow=none;endFill=0;entryX=0.75;entryY=1;entryDx=0;entryDy=0;" edge="1" parent="1" target="Y-_55_ya9VjyHDabUnFr-54">
          <mxGeometry relative="1" as="geometry">
            <mxPoint x="1656" y="384" as="targetPoint" />
            <mxPoint x="1698" y="442" as="sourcePoint" />
          </mxGeometry>
        </mxCell>
        <mxCell id="fioEPVJvo6Oif7lgc-Ir-64" value="" style="shape=link;html=1;rounded=0;exitX=1;exitY=0.5;exitDx=0;exitDy=0;entryX=0;entryY=0.5;entryDx=0;entryDy=0;" edge="1" parent="1" source="Y-_55_ya9VjyHDabUnFr-54" target="-d3J0LfeknoKQkhsuHQo-53">
          <mxGeometry relative="1" as="geometry">
            <mxPoint x="1695" y="370" as="sourcePoint" />
            <mxPoint x="1865" y="389" as="targetPoint" />
          </mxGeometry>
        </mxCell>
        <mxCell id="fioEPVJvo6Oif7lgc-Ir-66" value="&lt;font style=&quot;font-size: 16px;&quot;&gt;&lt;b&gt;&lt;u&gt;Id_Evento&lt;/u&gt;&lt;br&gt;&lt;/b&gt;&lt;/font&gt;" style="ellipse;whiteSpace=wrap;html=1;align=center;shadow=0;strokeColor=default;strokeWidth=2;fontFamily=Helvetica;fontSize=12;fontColor=default;fillColor=default;" vertex="1" parent="1">
          <mxGeometry x="2004.5" y="420" width="110" height="40" as="geometry" />
        </mxCell>
        <mxCell id="fioEPVJvo6Oif7lgc-Ir-67" value="" style="endArrow=none;html=1;rounded=0;exitX=0.75;exitY=1;exitDx=0;exitDy=0;entryX=0.309;entryY=0.025;entryDx=0;entryDy=0;entryPerimeter=0;" edge="1" parent="1" source="-d3J0LfeknoKQkhsuHQo-53" target="fioEPVJvo6Oif7lgc-Ir-66">
          <mxGeometry width="50" height="50" relative="1" as="geometry">
            <mxPoint x="1945.5" y="415" as="sourcePoint" />
            <mxPoint x="1994.5" y="510" as="targetPoint" />
          </mxGeometry>
        </mxCell>
        <mxCell id="fioEPVJvo6Oif7lgc-Ir-68" value="&lt;span style=&quot;font-size: 16px;&quot;&gt;Ticket&lt;/span&gt;" style="whiteSpace=wrap;html=1;align=center;strokeWidth=2;fontStyle=1" vertex="1" parent="1">
          <mxGeometry x="1030" y="5" width="100" height="40" as="geometry" />
        </mxCell>
        <mxCell id="TdeLC3_kOeJKwItWiQyu-50" style="rounded=0;orthogonalLoop=1;jettySize=auto;html=1;exitX=0;exitY=0.5;exitDx=0;exitDy=0;entryX=1;entryY=0.75;entryDx=0;entryDy=0;endArrow=none;endFill=0;" edge="1" parent="1" source="TdeLC3_kOeJKwItWiQyu-49" target="-d3J0LfeknoKQkhsuHQo-6">
          <mxGeometry relative="1" as="geometry" />
        </mxCell>
        <mxCell id="TdeLC3_kOeJKwItWiQyu-49" value="&lt;b&gt;&lt;font style=&quot;font-size: 16px;&quot;&gt;&lt;u&gt;Id_Insumo&lt;/u&gt;&lt;/font&gt;&lt;/b&gt;" style="ellipse;whiteSpace=wrap;html=1;align=center;strokeWidth=2;" vertex="1" parent="1">
          <mxGeometry x="1230" y="800" width="120" height="40" as="geometry" />
        </mxCell>
        <mxCell id="roZmmaQ8vLZ8YoXT2cP6-1" value="&lt;font style=&quot;font-size: 16px;&quot;&gt;&lt;b&gt;Noti_evento&lt;br&gt;&lt;/b&gt;&lt;/font&gt;" style="ellipse;whiteSpace=wrap;html=1;align=center;shadow=0;strokeColor=default;strokeWidth=2;fontFamily=Helvetica;fontSize=12;fontColor=default;fillColor=default;" vertex="1" parent="1">
          <mxGeometry x="1575" y="490" width="110" height="40" as="geometry" />
        </mxCell>
        <mxCell id="fioEPVJvo6Oif7lgc-Ir-69" style="rounded=0;orthogonalLoop=1;jettySize=auto;html=1;entryX=0.5;entryY=1;entryDx=0;entryDy=0;endArrow=none;endFill=0;exitX=0.5;exitY=0;exitDx=0;exitDy=0;" edge="1" parent="1" source="fioEPVJvo6Oif7lgc-Ir-68" target="fioEPVJvo6Oif7lgc-Ir-42">
          <mxGeometry relative="1" as="geometry">
            <mxPoint x="994.49" y="-44" as="targetPoint" />
            <mxPoint x="1020" y="15" as="sourcePoint" />
          </mxGeometry>
        </mxCell>
        <mxCell id="roZmmaQ8vLZ8YoXT2cP6-2" style="rounded=0;orthogonalLoop=1;jettySize=auto;html=1;endArrow=none;endFill=0;entryX=0.5;entryY=1;entryDx=0;entryDy=0;exitX=0.5;exitY=0;exitDx=0;exitDy=0;" edge="1" parent="1" source="roZmmaQ8vLZ8YoXT2cP6-1" target="Y-_55_ya9VjyHDabUnFr-54">
          <mxGeometry relative="1" as="geometry">
            <mxPoint x="1630" y="395" as="targetPoint" />
            <mxPoint x="1707" y="462" as="sourcePoint" />
          </mxGeometry>
        </mxCell>
        <mxCell id="fioEPVJvo6Oif7lgc-Ir-73" style="rounded=0;orthogonalLoop=1;jettySize=auto;html=1;entryX=0;entryY=0.35;entryDx=0;entryDy=0;endArrow=none;endFill=0;entryPerimeter=0;exitX=1;exitY=1;exitDx=0;exitDy=0;" edge="1" parent="1" source="fioEPVJvo6Oif7lgc-Ir-68" target="Y-_55_ya9VjyHDabUnFr-36">
          <mxGeometry relative="1" as="geometry">
            <mxPoint x="1196.1999999999998" y="84.01000000000022" as="targetPoint" />
            <mxPoint x="1081.04" y="84" as="sourcePoint" />
          </mxGeometry>
        </mxCell>
        <mxCell id="fioEPVJvo6Oif7lgc-Ir-75" value="&lt;font style=&quot;font-size: 16px;&quot;&gt;&lt;b&gt;Descuento&lt;br&gt;&lt;/b&gt;&lt;/font&gt;" style="ellipse;whiteSpace=wrap;html=1;align=center;shadow=0;strokeColor=default;strokeWidth=2;fontFamily=Helvetica;fontSize=12;fontColor=default;fillColor=default;" vertex="1" parent="1">
          <mxGeometry x="910" y="-65" width="110" height="40" as="geometry" />
        </mxCell>
        <mxCell id="fioEPVJvo6Oif7lgc-Ir-76" style="rounded=0;orthogonalLoop=1;jettySize=auto;html=1;endArrow=none;endFill=0;exitX=0.25;exitY=0;exitDx=0;exitDy=0;" edge="1" parent="1" source="fioEPVJvo6Oif7lgc-Ir-68" target="fioEPVJvo6Oif7lgc-Ir-75">
          <mxGeometry relative="1" as="geometry">
            <mxPoint x="1000" y="-63" as="targetPoint" />
            <mxPoint x="1006" y="35" as="sourcePoint" />
          </mxGeometry>
        </mxCell>
        <mxCell id="fioEPVJvo6Oif7lgc-Ir-78" value="" style="shape=link;html=1;rounded=0;entryX=0.5;entryY=1;entryDx=0;entryDy=0;exitX=0.5;exitY=0;exitDx=0;exitDy=0;edgeStyle=orthogonalEdgeStyle;" edge="1" parent="1" source="CCVpfl_Kz8rF-1x_p7pF-4" target="fioEPVJvo6Oif7lgc-Ir-68">
          <mxGeometry relative="1" as="geometry">
            <mxPoint x="990" y="115" as="sourcePoint" />
            <mxPoint x="1010" y="85" as="targetPoint" />
          </mxGeometry>
        </mxCell>
        <mxCell id="CCVpfl_Kz8rF-1x_p7pF-3" style="edgeStyle=orthogonalEdgeStyle;rounded=0;orthogonalLoop=1;jettySize=auto;html=1;exitX=1;exitY=0.5;exitDx=0;exitDy=0;entryX=0;entryY=0.25;entryDx=0;entryDy=0;shape=link;" edge="1" parent="1" source="CCVpfl_Kz8rF-1x_p7pF-1" target="-d3J0LfeknoKQkhsuHQo-6">
          <mxGeometry relative="1" as="geometry" />
        </mxCell>
        <mxCell id="CCVpfl_Kz8rF-1x_p7pF-1" value="&lt;span style=&quot;font-size: 18px;&quot;&gt;&lt;b&gt;Proveer&lt;/b&gt;&lt;/span&gt;" style="rhombus;whiteSpace=wrap;html=1;" vertex="1" parent="1">
          <mxGeometry x="575" y="720" width="150" height="50" as="geometry" />
        </mxCell>
        <mxCell id="CCVpfl_Kz8rF-1x_p7pF-4" value="Asignar" style="shape=rhombus;double=0;perimeter=rhombusPerimeter;whiteSpace=wrap;html=1;align=center;fontSize=21;strokeColor=default;recursiveResize=1;arcSize=20;" vertex="1" parent="1">
          <mxGeometry x="1337.5" y="215" width="135" height="60" as="geometry" />
        </mxCell>
        <mxCell id="Y-_55_ya9VjyHDabUnFr-1" value="&lt;font style=&quot;font-size: 16px;&quot;&gt;&lt;b&gt;indicacionMed&lt;/b&gt;&lt;/font&gt;" style="ellipse;shape=doubleEllipse;margin=3;whiteSpace=wrap;html=1;align=center;strokeWidth=2;" vertex="1" parent="1">
          <mxGeometry x="-740" y="1050" width="125.9" height="50.5" as="geometry" />
        </mxCell>
        <mxCell id="Y-_55_ya9VjyHDabUnFr-4" style="rounded=0;orthogonalLoop=1;jettySize=auto;html=1;exitX=1;exitY=0.5;exitDx=0;exitDy=0;entryX=0;entryY=0;entryDx=0;entryDy=0;endArrow=none;endFill=0;" edge="1" parent="1" source="Y-_55_ya9VjyHDabUnFr-3" target="-d3J0LfeknoKQkhsuHQo-52">
          <mxGeometry relative="1" as="geometry" />
        </mxCell>
        <mxCell id="Y-_55_ya9VjyHDabUnFr-3" value="&lt;b&gt;&lt;font style=&quot;font-size: 16px;&quot;&gt;&lt;u&gt;Id_Animal&lt;/u&gt;&lt;/font&gt;&lt;/b&gt;" style="ellipse;whiteSpace=wrap;html=1;align=center;shadow=0;strokeColor=default;strokeWidth=2;fontFamily=Helvetica;fontSize=12;fontColor=default;fillColor=default;" vertex="1" parent="1">
          <mxGeometry x="-690" y="940" width="110" height="40" as="geometry" />
        </mxCell>
        <mxCell id="Y-_55_ya9VjyHDabUnFr-6" style="rounded=0;orthogonalLoop=1;jettySize=auto;html=1;exitX=0.5;exitY=1;exitDx=0;exitDy=0;entryX=0.25;entryY=0;entryDx=0;entryDy=0;endArrow=none;endFill=0;" edge="1" parent="1" source="Y-_55_ya9VjyHDabUnFr-5" target="cc5oqjslnrZ3DRCShtl0-1">
          <mxGeometry relative="1" as="geometry" />
        </mxCell>
        <mxCell id="Y-_55_ya9VjyHDabUnFr-5" value="&lt;font size=&quot;1&quot;&gt;&lt;b style=&quot;font-size: 16px;&quot;&gt;Fecha_Nac&lt;/b&gt;&lt;/font&gt;" style="ellipse;whiteSpace=wrap;html=1;align=center;strokeWidth=2;" vertex="1" parent="1">
          <mxGeometry x="10" y="110" width="100" height="40" as="geometry" />
        </mxCell>
        <mxCell id="Y-_55_ya9VjyHDabUnFr-36" value="&lt;font size=&quot;1&quot;&gt;&lt;b style=&quot;font-size: 16px;&quot;&gt;Id_Cliente&lt;/b&gt;&lt;/font&gt;" style="ellipse;whiteSpace=wrap;html=1;align=center;dashed=1;" vertex="1" parent="1">
          <mxGeometry x="1170" y="70" width="110" height="40" as="geometry" />
        </mxCell>
        <mxCell id="Y-_55_ya9VjyHDabUnFr-38" value="&lt;span style=&quot;font-size: 16px;&quot;&gt;Servicio&lt;/span&gt;" style="whiteSpace=wrap;html=1;align=center;strokeWidth=2;fontStyle=1" vertex="1" parent="1">
          <mxGeometry x="690" y="235" width="100" height="40" as="geometry" />
        </mxCell>
        <mxCell id="Y-_55_ya9VjyHDabUnFr-40" style="rounded=0;orthogonalLoop=1;jettySize=auto;html=1;exitX=0.5;exitY=1;exitDx=0;exitDy=0;entryX=0;entryY=0;entryDx=0;entryDy=0;endArrow=none;endFill=0;" edge="1" parent="1" source="Y-_55_ya9VjyHDabUnFr-39" target="Y-_55_ya9VjyHDabUnFr-38">
          <mxGeometry relative="1" as="geometry" />
        </mxCell>
        <mxCell id="Y-_55_ya9VjyHDabUnFr-39" value="&lt;font style=&quot;font-size: 16px;&quot;&gt;&lt;b&gt;tiposServicio&lt;br&gt;&lt;/b&gt;&lt;/font&gt;" style="ellipse;whiteSpace=wrap;html=1;align=center;shadow=0;strokeColor=default;strokeWidth=2;fontFamily=Helvetica;fontSize=12;fontColor=default;fillColor=default;" vertex="1" parent="1">
          <mxGeometry x="580" y="150" width="110" height="40" as="geometry" />
        </mxCell>
        <mxCell id="Y-_55_ya9VjyHDabUnFr-44" style="rounded=0;orthogonalLoop=1;jettySize=auto;html=1;exitX=1;exitY=0.5;exitDx=0;exitDy=0;entryX=0;entryY=0.5;entryDx=0;entryDy=0;endArrow=none;endFill=0;" edge="1" parent="1" source="Y-_55_ya9VjyHDabUnFr-42" target="Y-_55_ya9VjyHDabUnFr-38">
          <mxGeometry relative="1" as="geometry" />
        </mxCell>
        <mxCell id="Y-_55_ya9VjyHDabUnFr-42" value="&lt;font size=&quot;1&quot;&gt;&lt;b style=&quot;font-size: 16px;&quot;&gt;costoUnitario&lt;/b&gt;&lt;/font&gt;" style="ellipse;whiteSpace=wrap;html=1;align=center;shadow=0;strokeColor=default;strokeWidth=2;fontFamily=Helvetica;fontSize=12;fontColor=default;fillColor=default;" vertex="1" parent="1">
          <mxGeometry x="490" y="200" width="120" height="35" as="geometry" />
        </mxCell>
        <mxCell id="Y-_55_ya9VjyHDabUnFr-45" style="rounded=0;orthogonalLoop=1;jettySize=auto;html=1;exitX=0.5;exitY=1;exitDx=0;exitDy=0;entryX=0.75;entryY=0;entryDx=0;entryDy=0;endArrow=none;endFill=0;" edge="1" parent="1" source="Y-_55_ya9VjyHDabUnFr-43" target="Y-_55_ya9VjyHDabUnFr-38">
          <mxGeometry relative="1" as="geometry" />
        </mxCell>
        <mxCell id="Y-_55_ya9VjyHDabUnFr-43" value="&lt;font size=&quot;1&quot;&gt;&lt;b style=&quot;font-size: 16px;&quot;&gt;Cantidad&lt;/b&gt;&lt;/font&gt;" style="ellipse;whiteSpace=wrap;html=1;align=center;shadow=0;strokeColor=default;strokeWidth=2;fontFamily=Helvetica;fontSize=12;fontColor=default;fillColor=default;" vertex="1" parent="1">
          <mxGeometry x="710" y="140" width="110" height="40" as="geometry" />
        </mxCell>
        <mxCell id="Y-_55_ya9VjyHDabUnFr-47" style="rounded=0;orthogonalLoop=1;jettySize=auto;html=1;exitX=1;exitY=0.5;exitDx=0;exitDy=0;entryX=0;entryY=0.75;entryDx=0;entryDy=0;endArrow=none;endFill=0;" edge="1" parent="1" source="Y-_55_ya9VjyHDabUnFr-46" target="Y-_55_ya9VjyHDabUnFr-38">
          <mxGeometry relative="1" as="geometry" />
        </mxCell>
        <mxCell id="Y-_55_ya9VjyHDabUnFr-46" value="&lt;b&gt;&lt;font style=&quot;font-size: 16px;&quot;&gt;&lt;u&gt;Id_Servicio&lt;/u&gt;&lt;/font&gt;&lt;/b&gt;" style="ellipse;whiteSpace=wrap;html=1;align=center;strokeWidth=2;" vertex="1" parent="1">
          <mxGeometry x="450" y="255" width="120" height="40" as="geometry" />
        </mxCell>
        <mxCell id="Y-_55_ya9VjyHDabUnFr-49" style="edgeStyle=orthogonalEdgeStyle;rounded=0;orthogonalLoop=1;jettySize=auto;html=1;exitX=0.5;exitY=1;exitDx=0;exitDy=0;entryX=0.75;entryY=0;entryDx=0;entryDy=0;" edge="1" parent="1" source="Y-_55_ya9VjyHDabUnFr-48" target="cc5oqjslnrZ3DRCShtl0-53">
          <mxGeometry relative="1" as="geometry" />
        </mxCell>
        <mxCell id="Y-_55_ya9VjyHDabUnFr-50" style="edgeStyle=orthogonalEdgeStyle;rounded=0;orthogonalLoop=1;jettySize=auto;html=1;exitX=0.5;exitY=0;exitDx=0;exitDy=0;entryX=0.5;entryY=1;entryDx=0;entryDy=0;endArrow=none;endFill=0;shape=link;" edge="1" parent="1" source="Y-_55_ya9VjyHDabUnFr-48" target="Y-_55_ya9VjyHDabUnFr-38">
          <mxGeometry relative="1" as="geometry" />
        </mxCell>
        <mxCell id="Y-_55_ya9VjyHDabUnFr-48" value="&lt;b&gt;&lt;font style=&quot;font-size: 18px;&quot;&gt;Dar&lt;/font&gt;&lt;/b&gt;" style="rhombus;whiteSpace=wrap;html=1;" vertex="1" parent="1">
          <mxGeometry x="530" y="365" width="150" height="50" as="geometry" />
        </mxCell>
        <mxCell id="Y-_55_ya9VjyHDabUnFr-52" style="edgeStyle=orthogonalEdgeStyle;rounded=0;orthogonalLoop=1;jettySize=auto;html=1;exitX=0.5;exitY=0;exitDx=0;exitDy=0;entryX=0;entryY=0.5;entryDx=0;entryDy=0;shape=link;" edge="1" parent="1" source="Y-_55_ya9VjyHDabUnFr-51" target="fioEPVJvo6Oif7lgc-Ir-68">
          <mxGeometry relative="1" as="geometry" />
        </mxCell>
        <mxCell id="Y-_55_ya9VjyHDabUnFr-53" style="edgeStyle=orthogonalEdgeStyle;rounded=0;orthogonalLoop=1;jettySize=auto;html=1;exitX=0.5;exitY=1;exitDx=0;exitDy=0;entryX=1;entryY=0.5;entryDx=0;entryDy=0;endArrow=none;endFill=0;" edge="1" parent="1" source="Y-_55_ya9VjyHDabUnFr-51" target="Y-_55_ya9VjyHDabUnFr-38">
          <mxGeometry relative="1" as="geometry" />
        </mxCell>
        <mxCell id="Y-_55_ya9VjyHDabUnFr-51" value="&lt;font size=&quot;1&quot;&gt;&lt;b style=&quot;font-size: 18px;&quot;&gt;Registrar&lt;/b&gt;&lt;/font&gt;" style="rhombus;whiteSpace=wrap;html=1;" vertex="1" parent="1">
          <mxGeometry x="835" y="100" width="150" height="50" as="geometry" />
        </mxCell>
        <mxCell id="Y-_55_ya9VjyHDabUnFr-55" value="" style="edgeStyle=orthogonalEdgeStyle;rounded=0;orthogonalLoop=1;jettySize=auto;html=1;exitX=0;exitY=0.5;exitDx=0;exitDy=0;entryX=1;entryY=0.5;entryDx=0;entryDy=0;" edge="1" parent="1" source="Y-_55_ya9VjyHDabUnFr-54" target="-d3J0LfeknoKQkhsuHQo-31">
          <mxGeometry relative="1" as="geometry" />
        </mxCell>
        <mxCell id="Y-_55_ya9VjyHDabUnFr-54" value="&lt;font style=&quot;font-size: 18px;&quot;&gt;Notificar&lt;/font&gt;" style="shape=associativeEntity;whiteSpace=wrap;html=1;align=center;" vertex="1" parent="1">
          <mxGeometry x="1560" y="340" width="140" height="60" as="geometry" />
        </mxCell>
        <mxCell id="h0R60bCrYITGfhwR2ivO-2" value="&lt;font style=&quot;font-size: 16px;&quot;&gt;Persona&lt;/font&gt;" style="whiteSpace=wrap;html=1;align=center;strokeWidth=2;fontStyle=1" vertex="1" parent="1">
          <mxGeometry x="355.9" y="-120" width="100" height="40" as="geometry" />
        </mxCell>
        <mxCell id="h0R60bCrYITGfhwR2ivO-4" value="&lt;font size=&quot;1&quot;&gt;&lt;b style=&quot;font-size: 16px;&quot;&gt;Genero&lt;/b&gt;&lt;/font&gt;" style="ellipse;whiteSpace=wrap;html=1;align=center;strokeWidth=2;" vertex="1" parent="1">
          <mxGeometry x="490" y="-170" width="100" height="40" as="geometry" />
        </mxCell>
        <mxCell id="h0R60bCrYITGfhwR2ivO-6" value="&lt;font size=&quot;1&quot;&gt;&lt;b style=&quot;font-size: 16px;&quot;&gt;NombreC&lt;/b&gt;&lt;/font&gt;" style="ellipse;whiteSpace=wrap;html=1;align=center;strokeWidth=2;" vertex="1" parent="1">
          <mxGeometry x="340" y="-220" width="100" height="40" as="geometry" />
        </mxCell>
        <mxCell id="h0R60bCrYITGfhwR2ivO-7" value="&lt;font size=&quot;1&quot;&gt;&lt;b style=&quot;font-size: 16px;&quot;&gt;Nombre&lt;/b&gt;&lt;/font&gt;" style="ellipse;whiteSpace=wrap;html=1;align=center;strokeWidth=2;" vertex="1" parent="1">
          <mxGeometry x="240" y="-270" width="100" height="40" as="geometry" />
        </mxCell>
        <mxCell id="h0R60bCrYITGfhwR2ivO-8" value="&lt;font size=&quot;1&quot;&gt;&lt;b style=&quot;font-size: 16px;&quot;&gt;ApellidoPat&lt;/b&gt;&lt;/font&gt;" style="ellipse;whiteSpace=wrap;html=1;align=center;strokeWidth=2;" vertex="1" parent="1">
          <mxGeometry x="340" y="-320" width="100" height="40" as="geometry" />
        </mxCell>
        <mxCell id="h0R60bCrYITGfhwR2ivO-9" value="&lt;font size=&quot;1&quot;&gt;&lt;b style=&quot;font-size: 16px;&quot;&gt;ApellidoMat&lt;/b&gt;&lt;/font&gt;" style="ellipse;whiteSpace=wrap;html=1;align=center;strokeWidth=2;" vertex="1" parent="1">
          <mxGeometry x="440" y="-270" width="100" height="40" as="geometry" />
        </mxCell>
        <mxCell id="h0R60bCrYITGfhwR2ivO-10" value="&lt;font style=&quot;font-size: 16px;&quot;&gt;&lt;b&gt;Correo&lt;/b&gt;&lt;/font&gt;" style="ellipse;shape=doubleEllipse;margin=3;whiteSpace=wrap;html=1;align=center;" vertex="1" parent="1">
          <mxGeometry x="200" y="-170" width="100" height="40" as="geometry" />
        </mxCell>
        <mxCell id="h0R60bCrYITGfhwR2ivO-12" value="&lt;font style=&quot;font-size: 16px;&quot;&gt;&lt;b&gt;Telefono&lt;/b&gt;&lt;/font&gt;" style="ellipse;shape=doubleEllipse;margin=3;whiteSpace=wrap;html=1;align=center;" vertex="1" parent="1">
          <mxGeometry x="200" y="-100" width="100" height="40" as="geometry" />
        </mxCell>
        <mxCell id="h0R60bCrYITGfhwR2ivO-13" value="" style="endArrow=none;html=1;rounded=0;exitX=0.5;exitY=1;exitDx=0;exitDy=0;entryX=0.5;entryY=0;entryDx=0;entryDy=0;strokeWidth=2;" edge="1" parent="1" source="h0R60bCrYITGfhwR2ivO-6" target="h0R60bCrYITGfhwR2ivO-2">
          <mxGeometry relative="1" as="geometry">
            <mxPoint x="290" y="70" as="sourcePoint" />
            <mxPoint x="450" y="70" as="targetPoint" />
          </mxGeometry>
        </mxCell>
        <mxCell id="h0R60bCrYITGfhwR2ivO-14" value="" style="endArrow=none;html=1;rounded=0;exitX=0;exitY=0.5;exitDx=0;exitDy=0;entryX=0.75;entryY=0;entryDx=0;entryDy=0;strokeWidth=2;" edge="1" parent="1" source="h0R60bCrYITGfhwR2ivO-4" target="h0R60bCrYITGfhwR2ivO-2">
          <mxGeometry relative="1" as="geometry">
            <mxPoint x="400" y="-170" as="sourcePoint" />
            <mxPoint x="416" y="-110" as="targetPoint" />
          </mxGeometry>
        </mxCell>
        <mxCell id="h0R60bCrYITGfhwR2ivO-15" value="" style="endArrow=none;html=1;rounded=0;exitX=0.74;exitY=0.975;exitDx=0;exitDy=0;entryX=0;entryY=0;entryDx=0;entryDy=0;strokeWidth=2;exitPerimeter=0;" edge="1" parent="1" source="h0R60bCrYITGfhwR2ivO-7" target="h0R60bCrYITGfhwR2ivO-6">
          <mxGeometry relative="1" as="geometry">
            <mxPoint x="410" y="-160" as="sourcePoint" />
            <mxPoint x="426" y="-100" as="targetPoint" />
          </mxGeometry>
        </mxCell>
        <mxCell id="h0R60bCrYITGfhwR2ivO-16" value="" style="endArrow=none;html=1;rounded=0;exitX=0.44;exitY=1;exitDx=0;exitDy=0;entryX=0.5;entryY=0;entryDx=0;entryDy=0;strokeWidth=2;exitPerimeter=0;" edge="1" parent="1" source="h0R60bCrYITGfhwR2ivO-8" target="h0R60bCrYITGfhwR2ivO-6">
          <mxGeometry relative="1" as="geometry">
            <mxPoint x="420" y="-150" as="sourcePoint" />
            <mxPoint x="436" y="-90" as="targetPoint" />
          </mxGeometry>
        </mxCell>
        <mxCell id="h0R60bCrYITGfhwR2ivO-17" value="" style="endArrow=none;html=1;rounded=0;exitX=0;exitY=1;exitDx=0;exitDy=0;entryX=1;entryY=0;entryDx=0;entryDy=0;strokeWidth=2;" edge="1" parent="1" source="h0R60bCrYITGfhwR2ivO-9" target="h0R60bCrYITGfhwR2ivO-6">
          <mxGeometry relative="1" as="geometry">
            <mxPoint x="430" y="-140" as="sourcePoint" />
            <mxPoint x="446" y="-80" as="targetPoint" />
          </mxGeometry>
        </mxCell>
        <mxCell id="h0R60bCrYITGfhwR2ivO-18" value="" style="endArrow=none;html=1;rounded=0;exitX=1;exitY=0.5;exitDx=0;exitDy=0;entryX=0;entryY=0;entryDx=0;entryDy=0;strokeWidth=2;" edge="1" parent="1" source="h0R60bCrYITGfhwR2ivO-10" target="h0R60bCrYITGfhwR2ivO-2">
          <mxGeometry relative="1" as="geometry">
            <mxPoint x="440" y="-130" as="sourcePoint" />
            <mxPoint x="456" y="-70" as="targetPoint" />
          </mxGeometry>
        </mxCell>
        <mxCell id="h0R60bCrYITGfhwR2ivO-19" value="" style="endArrow=none;html=1;rounded=0;exitX=0;exitY=0.5;exitDx=0;exitDy=0;entryX=1;entryY=0.5;entryDx=0;entryDy=0;strokeWidth=2;" edge="1" parent="1" source="h0R60bCrYITGfhwR2ivO-2" target="h0R60bCrYITGfhwR2ivO-12">
          <mxGeometry relative="1" as="geometry">
            <mxPoint x="450" y="-120" as="sourcePoint" />
            <mxPoint x="466" y="-60" as="targetPoint" />
          </mxGeometry>
        </mxCell>
        <mxCell id="h0R60bCrYITGfhwR2ivO-20" value="" style="triangle;whiteSpace=wrap;html=1;rotation=90;" vertex="1" parent="1">
          <mxGeometry x="375.9" y="-50" width="60" height="80" as="geometry" />
        </mxCell>
        <mxCell id="h0R60bCrYITGfhwR2ivO-21" value="&lt;b&gt;&lt;font style=&quot;font-size: 16px;&quot;&gt;o&lt;/font&gt;&lt;/b&gt;" style="text;html=1;strokeColor=none;fillColor=none;align=center;verticalAlign=middle;whiteSpace=wrap;rounded=0;" vertex="1" parent="1">
          <mxGeometry x="375" y="-30" width="60" height="30" as="geometry" />
        </mxCell>
        <mxCell id="h0R60bCrYITGfhwR2ivO-22" value="" style="endArrow=none;html=1;rounded=0;exitX=1;exitY=0.5;exitDx=0;exitDy=0;entryX=0.833;entryY=0.586;entryDx=0;entryDy=0;entryPerimeter=0;strokeWidth=2;" edge="1" parent="1" source="cc5oqjslnrZ3DRCShtl0-1" target="h0R60bCrYITGfhwR2ivO-20">
          <mxGeometry width="50" height="50" relative="1" as="geometry">
            <mxPoint x="350" y="230" as="sourcePoint" />
            <mxPoint x="400" y="180" as="targetPoint" />
          </mxGeometry>
        </mxCell>
        <mxCell id="h0R60bCrYITGfhwR2ivO-23" value="" style="endArrow=none;html=1;rounded=0;entryX=0.5;entryY=1;entryDx=0;entryDy=0;exitX=0;exitY=0.5;exitDx=0;exitDy=0;strokeWidth=2;" edge="1" parent="1" source="h0R60bCrYITGfhwR2ivO-20" target="h0R60bCrYITGfhwR2ivO-2">
          <mxGeometry width="50" height="50" relative="1" as="geometry">
            <mxPoint x="470" y="230" as="sourcePoint" />
            <mxPoint x="520" y="180" as="targetPoint" />
          </mxGeometry>
        </mxCell>
        <mxCell id="h0R60bCrYITGfhwR2ivO-24" value="" style="endArrow=none;html=1;rounded=0;entryX=0.581;entryY=1;entryDx=0;entryDy=0;strokeWidth=2;entryPerimeter=0;" edge="1" parent="1" target="h0R60bCrYITGfhwR2ivO-2">
          <mxGeometry width="50" height="50" relative="1" as="geometry">
            <mxPoint x="414" y="-40" as="sourcePoint" />
            <mxPoint x="416" y="-70" as="targetPoint" />
          </mxGeometry>
        </mxCell>
        <mxCell id="h0R60bCrYITGfhwR2ivO-25" value="" style="endArrow=none;html=1;rounded=0;exitX=0.75;exitY=1;exitDx=0;exitDy=0;entryX=0.75;entryY=0;entryDx=0;entryDy=0;edgeStyle=orthogonalEdgeStyle;strokeWidth=2;" edge="1" parent="1" source="h0R60bCrYITGfhwR2ivO-21" target="-d3J0LfeknoKQkhsuHQo-31">
          <mxGeometry width="50" height="50" relative="1" as="geometry">
            <mxPoint x="890" y="210" as="sourcePoint" />
            <mxPoint x="940" y="160" as="targetPoint" />
            <Array as="points">
              <mxPoint x="420" y="11" />
              <mxPoint x="650" y="11" />
              <mxPoint x="650" y="-170" />
              <mxPoint x="1520" y="-170" />
              <mxPoint x="1520" y="320" />
              <mxPoint x="1430" y="320" />
            </Array>
          </mxGeometry>
        </mxCell>
      </root>
    </mxGraphModel>
  </diagram>
</mxfile>
